<svg width="351" height="267" viewBox="0 0 351 267" fill="none" xmlns="http://www.w3.org/2000/svg">
<path d="M296.166 22.3334C274 12.0001 250 4.50008 225 0.166748C224.56 0.17301 224.141 0.352728 223.833 0.666752C220.833 6.16675 217.333 13.3334 215 18.8334C188.483 14.8359 161.517 14.8359 135 18.8334C132.667 13.1667 129.167 6.16675 126 0.666752C125.833 0.333418 125.333 0.166748 124.833 0.166748C99.8333 4.50008 76 12.0001 53.6667 22.3334C53.5 22.3334 53.3333 22.5001 53.1667 22.6667C7.83337 90.5001 -4.66662 156.5 1.50004 221.833C1.50004 222.167 1.66671 222.5 2.00004 222.667C32 244.667 60.8333 258 89.3333 266.833C89.8333 267 90.3333 266.833 90.5 266.5C97.1666 257.333 103.167 247.667 108.333 237.5C108.667 236.833 108.333 236.167 107.667 236C98.1666 232.333 89.1666 228 80.3333 223C79.6667 222.667 79.6666 221.667 80.1666 221.167C82 219.833 83.8333 218.333 85.6666 217C86 216.667 86.5 216.667 86.8333 216.833C144.167 243 206 243 262.667 216.833C263 216.667 263.5 216.667 263.833 217C265.667 218.5 267.5 219.833 269.333 221.333C270 221.833 270 222.833 269.167 223.167C260.5 228.333 251.333 232.5 241.833 236.167C241.167 236.333 241 237.167 241.167 237.667C246.5 247.833 252.5 257.5 259 266.667C259.5 266.833 260 267 260.5 266.833C289.166 258 318 244.667 348 222.667C348.333 222.5 348.5 222.167 348.5 221.833C355.833 146.333 336.333 80.8334 296.833 22.6667C296.666 22.5001 296.5 22.3334 296.166 22.3334ZM117 182C99.8333 182 85.5 166.167 85.5 146.667C85.5 127.167 99.5 111.333 117 111.333C134.667 111.333 148.667 127.333 148.5 146.667C148.5 166.167 134.5 182 117 182ZM233.167 182C216 182 201.667 166.167 201.667 146.667C201.667 127.167 215.667 111.333 233.167 111.333C250.833 111.333 264.833 127.333 264.667 146.667C264.667 166.167 250.833 182 233.167 182Z" fill="white"/>
</svg>
