<svg width="39" height="39" viewBox="0 0 39 39" fill="none" xmlns="http://www.w3.org/2000/svg">
<path d="M31.3137 8.66125C29.1524 7.65375 26.8124 6.9225 24.3749 6.5C24.3321 6.50061 24.2912 6.51813 24.2612 6.54875C23.9687 7.085 23.6274 7.78375 23.3999 8.32C20.8146 7.93025 18.1853 7.93025 15.5999 8.32C15.3724 7.7675 15.0312 7.085 14.7224 6.54875C14.7062 6.51625 14.6574 6.5 14.6087 6.5C12.1712 6.9225 9.84745 7.65375 7.66995 8.66125C7.6537 8.66125 7.63745 8.6775 7.6212 8.69375C3.2012 15.3075 1.98245 21.7425 2.5837 28.1125C2.5837 28.145 2.59995 28.1775 2.63245 28.1938C5.55745 30.3388 8.3687 31.6388 11.1474 32.5C11.1962 32.5163 11.2449 32.5 11.2612 32.4675C11.9112 31.5738 12.4962 30.6313 12.9999 29.64C13.0324 29.575 12.9999 29.51 12.9349 29.4938C12.0087 29.1363 11.1312 28.7138 10.2699 28.2263C10.2049 28.1938 10.2049 28.0963 10.2537 28.0475C10.4324 27.9175 10.6112 27.7713 10.7899 27.6413C10.8224 27.6088 10.8712 27.6088 10.9037 27.625C16.4937 30.1763 22.5224 30.1763 28.0474 27.625C28.0799 27.6088 28.1287 27.6088 28.1612 27.6413C28.3399 27.7875 28.5187 27.9175 28.6974 28.0638C28.7624 28.1125 28.7624 28.21 28.6812 28.2425C27.8362 28.7463 26.9424 29.1525 26.0162 29.51C25.9512 29.5263 25.9349 29.6075 25.9512 29.6563C26.4712 30.6475 27.0562 31.59 27.6899 32.4838C27.7387 32.5 27.7874 32.5163 27.8362 32.5C30.6312 31.6388 33.4424 30.3388 36.3674 28.1938C36.3999 28.1775 36.4162 28.145 36.4162 28.1125C37.1312 20.7513 35.2299 14.365 31.3787 8.69375C31.3624 8.6775 31.3462 8.66125 31.3137 8.66125ZM13.8449 24.2288C12.1712 24.2288 10.7737 22.685 10.7737 20.7838C10.7737 18.8825 12.1387 17.3388 13.8449 17.3388C15.5674 17.3388 16.9324 18.8988 16.9162 20.7838C16.9162 22.685 15.5512 24.2288 13.8449 24.2288ZM25.1712 24.2288C23.4974 24.2288 22.0999 22.685 22.0999 20.7838C22.0999 18.8825 23.4649 17.3388 25.1712 17.3388C26.8937 17.3388 28.2587 18.8988 28.2424 20.7838C28.2424 22.685 26.8937 24.2288 25.1712 24.2288Z" fill="#5865F2"/>
</svg>
