<svg width="99" height="64" viewBox="0 0 99 64" fill="none" xmlns="http://www.w3.org/2000/svg">
<path d="M49.5094 59.4415C59.8075 59.4415 68.1557 59.2058 68.1557 58.915C68.1557 58.6243 59.8075 58.3885 49.5094 58.3885C39.2114 58.3885 30.8632 58.6243 30.8632 58.915C30.8632 59.2058 39.2114 59.4415 49.5094 59.4415Z" fill="#D8DFEA"/>
<path d="M73.8131 9.97676V15.094C73.8131 23.405 67.077 30.1447 58.7706 30.1447H56.6646L59.0022 27.7335C65.8646 27.6101 71.4063 21.9872 71.4063 15.094V11.1809H62.3808L62.6817 8.77283H72.6098C73.2745 8.77262 73.8131 9.31149 73.8131 9.97676Z" fill="#E8A615"/>
<path d="M57.2663 44.6443V47.3022H41.6221V44.6443C41.6221 44.4276 41.7394 44.2259 41.9289 44.1205L43.1143 43.4523C45.166 42.2965 46.4357 40.1262 46.4357 37.7692V34.9607H52.4527V37.7692C52.4527 40.1261 53.7223 42.2964 55.774 43.4523L56.9594 44.1205C57.149 44.2259 57.2663 44.4276 57.2663 44.6443Z" fill="#E8A615"/>
<path d="M57.2663 44.6443V47.3022H55.7621V44.6443C55.7621 44.4276 55.6448 44.2259 55.4552 44.1205L54.2698 43.4523C52.2181 42.2965 50.9485 40.1262 50.9485 37.7692V34.9607H52.4528V37.7692C52.4528 40.1261 53.7224 42.2964 55.7741 43.4523L56.9595 44.1205C57.149 44.2259 57.2663 44.4276 57.2663 44.6443Z" fill="#B7791D"/>
<path d="M54.2578 32.6128V34.3587C54.2578 35.1894 53.5839 35.8637 52.7535 35.8637H46.1348C45.3044 35.8637 44.6305 35.1894 44.6305 34.3587V32.6128H54.2578Z" fill="#E8A615"/>
<path d="M52.4527 35.8638H46.4357V36.7488H52.4527V35.8638Z" fill="#B7791D"/>
<path d="M59.6731 46.7003V57.2357H39.2153V46.7003C39.2153 46.3692 39.4861 46.0983 39.817 46.0983H59.0714C59.4024 46.0983 59.6731 46.3692 59.6731 46.7003Z" fill="#343B49"/>
<path d="M59.673 46.7003V57.2357H58.4696V46.7003C58.4696 46.3692 58.1988 46.0983 57.868 46.0983H59.0714C59.4023 46.0983 59.673 46.3692 59.673 46.7003Z" fill="#262D38"/>
<path d="M61.4782 56.9347V58.1387C61.4782 58.4698 61.2073 58.7407 60.8765 58.7407H38.0119C37.681 58.7407 37.4102 58.4698 37.4102 58.1387V56.9347C37.4102 56.6036 37.681 56.3326 38.0119 56.3326H60.8765C61.2074 56.3326 61.4782 56.6036 61.4782 56.9347Z" fill="#262D38"/>
<path d="M61.4782 56.9347V58.1387C61.4782 58.4698 61.2074 58.7407 60.8765 58.7407H59.6731C60.004 58.7407 60.2748 58.4698 60.2748 58.1387V56.9347C60.2748 56.6036 60.004 56.3326 59.6731 56.3326H60.8765C61.2075 56.3326 61.4782 56.6036 61.4782 56.9347Z" fill="#171C23"/>
<path d="M56.6646 49.1084V53.3225C56.6646 53.6536 56.3937 53.9245 56.0629 53.9245H42.8255C42.4946 53.9245 42.2238 53.6536 42.2238 53.3225V49.1084C42.2238 48.7773 42.4946 48.5063 42.8255 48.5063H56.0629C56.3938 48.5063 56.6646 48.7773 56.6646 49.1084Z" fill="#E8A615"/>
<path d="M54.2578 32.6128V34.3587C54.2578 35.1894 53.5839 35.8637 52.7534 35.8637H51.55C52.3804 35.8637 53.0544 35.1894 53.0544 34.3587V32.6128H54.2578Z" fill="#B7791D"/>
<path d="M43.1263 30.1445H40.1178C31.8113 30.1445 25.0753 23.4049 25.0753 15.0939V9.97674C25.0753 9.31147 25.6138 8.77271 26.2787 8.77271H36.2068V11.1808H27.4821V15.0939C27.4821 21.9871 33.0238 27.61 39.8861 27.7334L43.1263 30.1445Z" fill="#E8A615"/>
<path d="M64.1859 6.3645V7.56854C64.1859 22.1977 57.5852 34.0576 49.4442 34.0576C41.3031 34.0576 34.7025 22.1978 34.7025 7.56854V6.3645H64.1859Z" fill="#E8A615"/>
<path d="M34.8379 11.1808H33.6345C33.5743 10.3891 33.5352 9.58546 33.5141 8.77271H34.7175C34.7386 9.58535 34.7777 10.3891 34.8379 11.1808Z" fill="#B7791D"/>
<path d="M41.7303 30.1446H40.5269C39.856 29.4041 39.2182 28.5673 38.6255 27.6461C39.0407 27.6973 39.4588 27.7244 39.8861 27.7334C40.4638 28.6214 41.0805 29.4281 41.7303 30.1446Z" fill="#B7791D"/>
<path d="M54.2578 32.6128V33.2148C52.7475 34.151 51.1289 34.6597 49.4442 34.6597C47.7594 34.6597 46.1408 34.151 44.6306 33.2148V32.6128C46.1408 33.549 47.7594 34.0577 49.4442 34.0577C51.1289 34.0577 52.7475 33.549 54.2578 32.6128Z" fill="#B7791D"/>
<path d="M64.1858 6.3645V7.56854C64.1858 21.7402 57.9913 33.3142 50.2023 34.0246C57.7717 33.3052 60.5756 21.7343 60.5756 7.56854V6.3645H64.1858Z" fill="#B7791D"/>
<path d="M65.6901 6.06352C65.6901 6.47895 65.5216 6.85519 65.2508 7.12907C64.977 7.39999 64.601 7.56856 64.1858 7.56856H34.7025C33.8721 7.56856 33.1982 6.89428 33.1982 6.06352C33.1982 5.64808 33.3666 5.27184 33.6374 4.99796C33.9112 4.72704 34.2872 4.55847 34.7025 4.55847H64.1859C65.0162 4.55847 65.6901 5.23275 65.6901 6.06352Z" fill="#E8A615"/>
<path d="M64.1859 7.5686C64.1859 7.97196 64.1798 8.37235 64.1708 8.77264H34.7175C34.7085 8.37225 34.7025 7.97196 34.7025 7.5686H64.1859Z" fill="#B7791D"/>
<path d="M65.69 6.06352C65.69 6.47895 65.5216 6.85519 65.2508 7.12907C64.977 7.39999 64.601 7.56856 64.1857 7.56856H60.8763C61.2916 7.56856 61.6676 7.39999 61.9414 7.12907C62.2122 6.85519 62.3806 6.47885 62.3806 6.06352C62.3806 5.23275 61.7068 4.55847 60.8763 4.55847H64.1857C65.0162 4.55847 65.69 5.23275 65.69 6.06352Z" fill="#B7791D"/>
<path d="M56.6646 49.1083V53.3225C56.6646 53.6536 56.3938 53.9245 56.0629 53.9245H44.1191C46.55 53.8763 54.5587 53.3586 54.5587 48.5062H56.063C56.3939 48.5063 56.6646 48.7772 56.6646 49.1083Z" fill="#B7791D"/>
<path d="M42.8255 51.8174V49.3545C42.8255 49.2185 42.9357 49.1083 43.0716 49.1083H48.4664C48.4664 49.1083 44.1793 49.5598 42.8255 51.8174Z" fill="#FFCC66"/>
<path d="M39.8922 49.4093V46.9464C39.8922 46.8104 40.0024 46.7002 40.1383 46.7002H45.5332C45.5332 46.7002 41.2459 47.1517 39.8922 49.4093Z" fill="#4E5868"/>
<path d="M49.4442 33.1547C46.1769 33.1547 37.1153 26.2585 36.0172 9.97668H39.5913C40.4908 29.8977 49.4442 33.1547 49.4442 33.1547Z" fill="#FFCC66"/>
<path d="M43.1263 44.8942C43.1263 44.8942 47.3381 42.1851 47.3381 38.2719V44.8942H43.1263Z" fill="#FFCC66"/>
<path d="M35.3042 5.16052V6.06355H33.7999C33.7999 5.56685 34.203 5.16052 34.7025 5.16052H35.3042Z" fill="#FFCC66"/>
<path d="M65.0733 8.77258C65.0522 9.58534 65.0131 10.389 64.95 11.1807H62.3808L62.6817 8.77258H65.0733Z" fill="#B7791D"/>
<path d="M59.9408 27.6823C59.3512 28.5882 58.7223 29.4131 58.0605 30.1446H56.6646L57.7296 29.0489L59.0022 27.7335C59.3181 27.7274 59.631 27.7094 59.9408 27.6823Z" fill="#B7791D"/>
<path d="M0 31.7626V29.1706C2.32717 29.1706 3.95062 28.6829 4.87034 27.7074C5.80399 26.732 6.27082 25.1016 6.27082 22.8162V16.1273C6.27082 14.2043 6.45197 12.539 6.81429 11.1316C7.19054 9.72412 7.79672 8.56054 8.63283 7.64082C9.46894 6.7211 10.5837 6.03828 11.9773 5.59235C13.3708 5.14643 15.0918 4.92346 17.1402 4.92346V9.0204C15.5238 9.0204 14.2487 9.27123 13.315 9.7729C12.3953 10.2746 11.7404 11.0549 11.3502 12.114C10.9739 13.1591 10.7858 14.4969 10.7858 16.1273V24.4884C10.7858 25.5754 10.6395 26.5648 10.3468 27.4566C10.0681 28.3485 9.54558 29.1149 8.77915 29.7559C8.01271 30.3969 6.9188 30.8916 5.49742 31.24C4.08997 31.5884 2.25749 31.7626 0 31.7626ZM17.1402 58.4344C15.0918 58.4344 13.3708 58.2115 11.9773 57.7656C10.5837 57.3196 9.46894 56.6368 8.63283 55.7171C7.79672 54.7974 7.19054 53.6338 6.81429 52.2263C6.45197 50.8189 6.27082 49.1536 6.27082 47.2306V40.5417C6.27082 38.2563 5.80399 36.6259 4.87034 35.6505C3.95062 34.675 2.32717 34.1873 0 34.1873V31.5953C2.25749 31.5953 4.08997 31.7695 5.49742 32.1179C6.9188 32.4663 8.01271 32.961 8.77915 33.602C9.54558 34.243 10.0681 35.0095 10.3468 35.9013C10.6395 36.7932 10.7858 37.7826 10.7858 38.8695V47.2306C10.7858 48.861 10.9739 50.1988 11.3502 51.2439C11.7404 52.289 12.3953 53.0624 13.315 53.5641C14.2487 54.0797 15.5238 54.3375 17.1402 54.3375V58.4344ZM0 34.1873V29.1706H4.93304V34.1873H0Z" fill="#1746A2"/>
<path d="M98.3699 31.5953V34.1873C96.0427 34.1873 94.4193 34.675 93.4996 35.6505C92.5659 36.6259 92.0991 38.2563 92.0991 40.5417V47.2306C92.0991 49.1536 91.9179 50.8189 91.5556 52.2263C91.1794 53.6338 90.5732 54.7974 89.7371 55.7171C88.901 56.6368 87.7862 57.3196 86.3926 57.7656C84.9991 58.2115 83.2781 58.4344 81.2297 58.4344L81.2297 54.3375C82.8462 54.3375 84.1212 54.0867 85.0549 53.585C85.9746 53.0833 86.6295 52.303 87.0197 51.2439C87.396 50.1988 87.5841 48.861 87.5841 47.2306L87.5841 38.8695C87.5841 37.7825 87.7304 36.7932 88.0231 35.9013C88.3018 35.0095 88.8243 34.243 89.5908 33.602C90.3572 32.961 91.4511 32.4663 92.8725 32.1179C94.2799 31.7695 96.1124 31.5953 98.3699 31.5953ZM81.2297 4.92346C83.2781 4.92346 84.9991 5.14642 86.3927 5.59235C87.7862 6.03828 88.901 6.7211 89.7371 7.64082C90.5732 8.56054 91.1794 9.72412 91.5556 11.1316C91.9179 12.539 92.0991 14.2043 92.0991 16.1273L92.0991 22.8162C92.0991 25.1016 92.5659 26.732 93.4996 27.7074C94.4193 28.6829 96.0427 29.1706 98.3699 29.1706V31.7626C96.1124 31.7626 94.2799 31.5884 92.8725 31.24C91.4511 30.8916 90.3572 30.3969 89.5908 29.7559C88.8243 29.1149 88.3018 28.3485 88.0231 27.4566C87.7304 26.5648 87.5841 25.5754 87.5841 24.4884L87.5841 16.1273C87.5841 14.4969 87.396 13.1591 87.0197 12.114C86.6296 11.0689 85.9746 10.2955 85.0549 9.7938C84.1212 9.2782 82.8462 9.0204 81.2297 9.0204L81.2297 4.92346ZM98.3699 29.1706V34.1873H93.4369V29.1706H98.3699Z" fill="#1746A2"/>
</svg>
