<svg width="39" height="39" viewBox="0 0 39 39" fill="none" xmlns="http://www.w3.org/2000/svg">
<path d="M26.975 9.4575C25.8645 8.18923 25.2523 6.56077 25.2525 4.875H20.2313V25.025C20.1933 26.1157 19.7332 27.149 18.948 27.9069C18.1628 28.6649 17.1139 29.0882 16.0225 29.0875C13.715 29.0875 11.7975 27.2025 11.7975 24.8625C11.7975 22.0675 14.495 19.9712 17.2738 20.8325V15.6975C11.6675 14.95 6.76001 19.305 6.76001 24.8625C6.76001 30.2738 11.245 34.125 16.0063 34.125C21.1088 34.125 25.2525 29.9813 25.2525 24.8625V14.6413C27.2886 16.1035 29.7332 16.8881 32.24 16.8838V11.8625C32.24 11.8625 29.185 12.0088 26.975 9.4575Z" fill="#25F4EE"/>
</svg>
