<svg width="1920" height="173" viewBox="0 0 1920 173" fill="none" xmlns="http://www.w3.org/2000/svg">
<path d="M-141 173L-83.75 147.38C-26.5 122 88 70.4 202.5 60.98C317 51.2 431.5 83.6 546 99.38C660.5 115.4 775 115.4 889.5 96.2C1004 77 1118.5 38.6 1233 22.58C1347.5 6.79995 1462 12.8 1576.5 12.98C1691 12.8 1805.5 6.79995 1862.75 3.37995L1920 0.199951V173H1862.75C1805.5 173 1691 173 1576.5 173C1462 173 1347.5 173 1233 173C1118.5 173 1004 173 889.5 173C775 173 660.5 173 546 173C431.5 173 317 173 202.5 173C88 173 -26.5 173 -83.75 173H-141Z" fill="#1A222F"/>
</svg>
