<svg width="1920" height="268" viewBox="0 0 1920 268" fill="none" xmlns="http://www.w3.org/2000/svg">
<g clip-path="url(#clip0_15_455)">
<path d="M0 134.078L71.1111 120.67C142.222 107.262 284.444 80.4465 426.667 84.8879C568.889 89.6644 711.111 124.86 853.333 151.927C995.556 178.491 1137.78 196.926 1280 187.709C1422.22 178.491 1564.44 143.295 1706.67 147.485C1848.89 151.675 1991.11 196.926 2133.33 178.742C2275.56 160.893 2417.78 80.4465 2488.89 40.2233L2560 0H2488.89C2417.78 0 2275.56 0 2133.33 0C1991.11 0 1848.89 0 1706.67 0C1564.44 0 1422.22 0 1280 0C1137.78 0 995.556 0 853.333 0C711.111 0 568.889 0 426.667 0C284.444 0 142.222 0 71.1111 0H0V134.078Z" fill="#1A222F"/>
</g>
<defs>
<clipPath id="clip0_15_455">
<rect width="1920" height="268" fill="white"/>
</clipPath>
</defs>
</svg>
