<svg width="696" height="531" viewBox="0 0 696 531" fill="none" xmlns="http://www.w3.org/2000/svg">
<g clip-path="url(#clip0_19_1733)">
<path d="M142.209 380.478C143.319 379.717 144.25 378.723 144.934 377.564C145.618 376.406 146.04 375.111 146.169 373.773C146.298 372.434 146.132 371.083 145.682 369.815C145.232 368.547 144.51 367.393 143.565 366.435L147.138 286.77L128.948 288.809L130.005 366.733C128.498 368.425 127.664 370.61 127.663 372.875C127.661 375.139 128.491 377.326 129.995 379.02C131.499 380.714 133.574 381.798 135.825 382.067C138.076 382.336 140.347 381.77 142.209 380.478Z" fill="#FFB8B8"/>
<path d="M175.392 515.334L185.745 517.151L195.978 478.129L182.413 475.445L175.392 515.334Z" fill="#FFB8B8"/>
<path d="M204.021 530.26L171.484 524.546L173.694 511.989L193.66 515.495C195.311 515.785 196.888 516.397 198.302 517.296C199.717 518.195 200.94 519.363 201.902 520.734C202.864 522.105 203.546 523.652 203.91 525.287C204.273 526.921 204.311 528.611 204.021 530.26Z" fill="#2F2E41"/>
<path d="M146.977 520.51L157.488 520.509L162.489 480.009L146.975 480.01L146.977 520.51Z" fill="#FFB8B8"/>
<path d="M177.76 530.259L144.724 530.26L144.724 517.51L164.996 517.509C168.381 517.509 171.628 518.852 174.022 521.243C176.415 523.634 177.76 526.877 177.76 530.259Z" fill="#2F2E41"/>
<path d="M191.692 509.42C191.528 509.42 191.364 509.41 191.201 509.391L178.829 508.374C178.265 508.307 177.721 508.128 177.23 507.845C176.738 507.562 176.309 507.183 175.969 506.729C175.629 506.276 175.385 505.758 175.251 505.208C175.117 504.657 175.097 504.085 175.191 503.526L186.616 439.566L178.896 398.907C178.833 398.576 178.653 398.28 178.388 398.072C178.124 397.864 177.793 397.759 177.457 397.775C177.12 397.792 176.801 397.93 176.559 398.163C176.316 398.396 176.166 398.709 176.136 399.044L166.486 507.494C166.38 508.582 165.855 509.587 165.021 510.296C164.188 511.005 163.111 511.363 162.019 511.294L150.363 510.861C149.341 510.788 148.382 510.345 147.665 509.614C146.948 508.884 146.524 507.916 146.473 506.894L145.69 376.913L206.12 369.368L210.341 434.493L210.325 434.562L195.757 506.225C195.535 507.135 195.014 507.945 194.277 508.524C193.54 509.103 192.63 509.418 191.692 509.42Z" fill="#2F2E41"/>
<path d="M165.613 235.145C177.244 235.145 186.672 225.728 186.672 214.11C186.672 202.493 177.244 193.075 165.613 193.075C153.983 193.075 144.555 202.493 144.555 214.11C144.555 225.728 153.983 235.145 165.613 235.145Z" fill="#FFB8B8"/>
<path d="M185.456 386.413C182.162 386.433 178.932 385.51 176.147 383.753C165.946 377.385 154.36 379.916 148.362 381.991C147.766 382.2 147.132 382.271 146.505 382.199C145.878 382.128 145.276 381.916 144.743 381.579C144.216 381.249 143.771 380.804 143.44 380.277C143.11 379.75 142.903 379.156 142.836 378.538L131.927 281.223C130.099 264.918 139.932 249.588 155.307 244.773C155.884 244.592 156.472 244.42 157.069 244.258C161.853 242.962 166.864 242.729 171.748 243.576C176.632 244.423 181.271 246.328 185.339 249.159C189.482 252.02 192.947 255.754 195.49 260.098C198.033 264.441 199.592 269.288 200.058 274.298L209.241 372.265C209.303 372.9 209.218 373.54 208.99 374.135C208.763 374.731 208.401 375.265 207.931 375.697C204.712 378.672 195.369 386.412 185.456 386.413Z" fill="#008CCF"/>
<path d="M152.239 302.091L127.629 299.388C126.929 299.311 126.254 299.085 125.649 298.724C125.044 298.362 124.525 297.875 124.126 297.296C123.727 296.716 123.457 296.057 123.336 295.364C123.215 294.67 123.245 293.959 123.423 293.279L129.688 269.43C130.102 265.853 131.919 262.587 134.74 260.347C137.562 258.107 141.158 257.075 144.739 257.479C148.321 257.883 151.595 259.689 153.846 262.502C156.096 265.314 157.138 268.903 156.744 272.481L157.674 297.04C157.7 297.744 157.575 298.444 157.305 299.094C157.036 299.745 156.63 300.329 156.114 300.809C155.599 301.288 154.986 301.651 154.317 301.872C153.648 302.093 152.94 302.168 152.239 302.091Z" fill="#008CCF"/>
<path d="M209.142 377.066C210.153 376.178 210.957 375.078 211.496 373.846C212.036 372.614 212.298 371.278 212.265 369.933C212.232 368.589 211.904 367.268 211.304 366.063C210.705 364.859 209.848 363.801 208.795 362.963L202.73 283.448L184.906 287.456L195.369 364.891C194.077 366.752 193.513 369.022 193.785 371.27C194.056 373.518 195.144 375.589 196.842 377.09C198.54 378.59 200.729 379.417 202.996 379.413C205.264 379.408 207.45 378.574 209.142 377.066Z" fill="#FFB8B8"/>
<path d="M178.073 297.093C177.557 296.614 177.15 296.029 176.881 295.379C176.612 294.728 176.487 294.028 176.514 293.325L177.443 268.766C177.049 265.187 178.091 261.598 180.342 258.786C182.592 255.974 185.867 254.167 189.448 253.764C193.03 253.36 196.625 254.391 199.447 256.631C202.268 258.871 204.086 262.137 204.5 265.714L210.764 289.563C210.943 290.243 210.972 290.955 210.851 291.648C210.73 292.341 210.461 293 210.062 293.58C209.662 294.16 209.143 294.647 208.538 295.008C207.934 295.369 207.258 295.596 206.558 295.673L181.948 298.376C181.248 298.453 180.539 298.378 179.87 298.157C179.201 297.935 178.588 297.573 178.073 297.093Z" fill="#008CCF"/>
<path d="M164.361 235.938C163.987 235.938 163.614 235.894 163.249 235.808L163.142 235.782C144.627 232.953 140.536 222.241 139.637 217.767C138.708 213.135 139.766 208.664 142.158 206.928C140.854 202.814 141.064 199.167 142.782 196.083C145.779 190.704 152.283 188.886 153.155 188.663C158.349 184.836 164.564 187.391 165.695 187.909C175.742 184.196 179.582 187.287 180.277 187.977C184.768 188.782 187.506 190.515 188.415 193.129C190.122 198.037 184.723 204.143 184.492 204.4L184.373 204.534L176.33 204.916C175.567 204.953 174.82 205.149 174.138 205.492C173.455 205.835 172.853 206.318 172.369 206.909C171.886 207.5 171.532 208.186 171.331 208.922C171.13 209.658 171.086 210.428 171.202 211.183C171.42 212.156 171.695 213.116 172.025 214.057C173.399 218.344 174.428 222.007 173.101 223.4C172.8 223.669 172.429 223.849 172.031 223.918C171.633 223.987 171.224 223.942 170.85 223.79C169.592 223.454 168.739 223.524 168.313 223.999C167.653 224.735 167.854 226.598 168.881 229.245C169.203 230.082 169.29 230.991 169.132 231.874C168.974 232.757 168.577 233.579 167.984 234.253C167.538 234.779 166.983 235.202 166.358 235.492C165.732 235.783 165.051 235.935 164.361 235.938Z" fill="#2F2E41"/>
<path d="M413.059 303.184H309.314C305.45 303.18 301.745 301.644 299.012 298.915C296.28 296.185 294.743 292.484 294.739 288.624V132.894C294.743 129.034 296.28 125.333 299.012 122.604C301.745 119.874 305.45 118.339 309.314 118.335H413.059C416.924 118.339 420.628 119.874 423.361 122.604C426.094 125.333 427.631 129.034 427.635 132.894V288.624C427.631 292.484 426.094 296.185 423.361 298.915C420.628 301.644 416.924 303.18 413.059 303.184ZM309.314 120.047C305.905 120.051 302.635 121.406 300.224 123.814C297.813 126.223 296.457 129.488 296.453 132.894V288.624C296.457 292.03 297.813 295.296 300.224 297.704C302.635 300.112 305.905 301.467 309.314 301.471H413.059C416.469 301.467 419.738 300.112 422.149 297.704C424.56 295.296 425.916 292.03 425.92 288.624V132.894C425.916 129.488 424.56 126.223 422.149 123.814C419.738 121.406 416.469 120.051 413.059 120.047H309.314Z" fill="#3F3D56"/>
<path d="M397.197 193.202H325.176C323.244 193.2 321.391 192.432 320.025 191.068C318.659 189.703 317.89 187.852 317.888 185.922V151.664C317.89 149.734 318.659 147.884 320.025 146.519C321.391 145.154 323.244 144.387 325.176 144.384H397.197C399.13 144.387 400.982 145.154 402.348 146.519C403.714 147.884 404.483 149.734 404.485 151.664V185.922C404.483 187.852 403.714 189.703 402.348 191.068C400.982 192.432 399.13 193.2 397.197 193.202Z" fill="#008CCF"/>
<path d="M392.053 225.319H330.321C328.501 225.319 326.757 224.597 325.47 223.312C324.184 222.027 323.461 220.285 323.461 218.467C323.461 216.65 324.184 214.907 325.47 213.623C326.757 212.338 328.501 211.616 330.321 211.616H392.053C393.872 211.616 395.617 212.338 396.903 213.623C398.19 214.907 398.912 216.65 398.912 218.467C398.912 220.285 398.19 222.027 396.903 223.312C395.617 224.597 393.872 225.319 392.053 225.319Z" fill="#CCCCCC"/>
<path d="M392.053 251.013H330.321C328.501 251.013 326.757 250.291 325.47 249.006C324.184 247.721 323.461 245.978 323.461 244.161C323.461 242.344 324.184 240.601 325.47 239.316C326.757 238.031 328.501 237.309 330.321 237.309H392.053C393.872 237.309 395.617 238.031 396.903 239.316C398.19 240.601 398.912 242.344 398.912 244.161C398.912 245.978 398.19 247.721 396.903 249.006C395.617 250.291 393.872 251.013 392.053 251.013Z" fill="#CCCCCC"/>
<path d="M392.053 276.706H330.321C328.501 276.706 326.757 275.984 325.47 274.699C324.184 273.414 323.461 271.672 323.461 269.855C323.461 268.037 324.184 266.295 325.47 265.01C326.757 263.725 328.501 263.003 330.321 263.003H392.053C393.872 263.003 395.617 263.725 396.903 265.01C398.19 266.295 398.912 268.037 398.912 269.855C398.912 271.672 398.19 273.414 396.903 274.699C395.617 275.984 393.872 276.706 392.053 276.706Z" fill="#CCCCCC"/>
<path d="M665.991 390.542H562.246C558.382 390.538 554.677 389.002 551.944 386.273C549.212 383.543 547.675 379.842 547.67 375.982V220.252C547.675 216.392 549.212 212.691 551.944 209.962C554.677 207.232 558.382 205.697 562.246 205.693H665.991C669.856 205.697 673.56 207.232 676.293 209.962C679.025 212.691 680.563 216.392 680.567 220.252V375.982C680.563 379.842 679.025 383.543 676.293 386.273C673.56 389.002 669.856 390.538 665.991 390.542ZM562.246 207.406C558.836 207.409 555.567 208.764 553.156 211.173C550.745 213.581 549.389 216.846 549.385 220.252V375.982C549.389 379.388 550.745 382.654 553.156 385.062C555.567 387.47 558.836 388.825 562.246 388.829H665.991C669.401 388.825 672.67 387.47 675.081 385.062C677.492 382.654 678.848 379.388 678.852 375.982V220.252C678.848 216.846 677.492 213.581 675.081 211.173C672.67 208.764 669.401 207.409 665.991 207.406H562.246Z" fill="#3F3D56"/>
<path d="M644.985 244.161H583.252C581.433 244.161 579.689 243.439 578.402 242.154C577.116 240.869 576.393 239.127 576.393 237.309C576.393 235.492 577.116 233.749 578.402 232.465C579.689 231.18 581.433 230.458 583.252 230.458H644.985C646.804 230.458 648.549 231.18 649.835 232.465C651.122 233.749 651.844 235.492 651.844 237.309C651.844 239.127 651.122 240.869 649.835 242.154C648.549 243.439 646.804 244.161 644.985 244.161Z" fill="#CCCCCC"/>
<path d="M644.985 269.854H583.252C581.433 269.854 579.689 269.133 578.402 267.848C577.116 266.563 576.393 264.82 576.393 263.003C576.393 261.186 577.116 259.443 578.402 258.158C579.689 256.873 581.433 256.151 583.252 256.151H644.985C646.804 256.151 648.549 256.873 649.835 258.158C651.122 259.443 651.844 261.186 651.844 263.003C651.844 264.82 651.122 266.563 649.835 267.848C648.549 269.133 646.804 269.854 644.985 269.854Z" fill="#CCCCCC"/>
<path d="M650.129 335.373H578.108C576.176 335.37 574.323 334.603 572.957 333.238C571.591 331.873 570.822 330.023 570.82 328.093V293.835C570.822 291.905 571.591 290.055 572.957 288.69C574.323 287.325 576.176 286.557 578.108 286.555H650.129C652.061 286.557 653.914 287.325 655.28 288.69C656.646 290.055 657.415 291.905 657.417 293.835V328.093C657.415 330.023 656.646 331.873 655.28 333.238C653.914 334.603 652.061 335.37 650.129 335.373Z" fill="#E6E6E6"/>
<path d="M644.985 365.777H583.252C581.433 365.777 579.689 365.055 578.402 363.77C577.116 362.485 576.393 360.743 576.393 358.925C576.393 357.108 577.116 355.366 578.402 354.081C579.689 352.796 581.433 352.074 583.252 352.074H644.985C646.804 352.074 648.549 352.796 649.835 354.081C651.122 355.366 651.844 357.108 651.844 358.925C651.844 360.743 651.122 362.485 649.835 363.77C648.549 365.055 646.804 365.777 644.985 365.777Z" fill="#CCCCCC"/>
<path d="M602.544 143.027H498.799C494.934 143.023 491.23 141.488 488.497 138.758C485.765 136.029 484.227 132.328 484.223 128.468V31.833C484.227 27.9729 485.765 24.2721 488.497 21.5425C491.23 18.813 494.934 17.2777 498.799 17.2733H602.544C606.408 17.2777 610.113 18.813 612.846 21.5425C615.578 24.2721 617.115 27.9729 617.12 31.833V128.468C617.115 132.328 615.578 136.029 612.846 138.758C610.113 141.488 606.408 143.023 602.544 143.027ZM498.799 18.9862C495.389 18.9901 492.12 20.3448 489.709 22.7532C487.298 25.1616 485.942 28.427 485.938 31.833V128.468C485.942 131.874 487.298 135.139 489.709 137.548C492.12 139.956 495.389 141.311 498.799 141.315H602.544C605.954 141.311 609.223 139.956 611.634 137.548C614.045 135.139 615.401 131.874 615.405 128.468V31.833C615.401 28.427 614.045 25.1616 611.634 22.7532C609.223 20.3448 605.954 18.9901 602.544 18.9862H498.799Z" fill="#3F3D56"/>
<path d="M581.538 112.696H519.805C517.986 112.696 516.241 111.974 514.955 110.689C513.669 109.404 512.946 107.661 512.946 105.844C512.946 104.027 513.669 102.284 514.955 100.999C516.241 99.7142 517.986 98.9924 519.805 98.9924H581.538C583.357 98.9924 585.102 99.7142 586.388 100.999C587.674 102.284 588.397 104.027 588.397 105.844C588.397 107.661 587.674 109.404 586.388 110.689C585.102 111.974 583.357 112.696 581.538 112.696Z" fill="#CCCCCC"/>
<path d="M581.538 87.0021H519.805C517.986 87.0021 516.241 86.2802 514.955 84.9953C513.669 83.7103 512.946 81.9676 512.946 80.1504C512.946 78.3333 513.669 76.5906 514.955 75.3056C516.241 74.0207 517.986 73.2988 519.805 73.2988H581.538C583.357 73.2988 585.102 74.0207 586.388 75.3056C587.674 76.5906 588.397 78.3333 588.397 80.1504C588.397 81.9676 587.674 83.7103 586.388 84.9953C585.102 86.2802 583.357 87.0021 581.538 87.0021Z" fill="#CCCCCC"/>
<path d="M581.538 61.3085H519.805C517.986 61.3085 516.241 60.5867 514.955 59.3017C513.669 58.0168 512.946 56.2741 512.946 54.4569C512.946 52.6397 513.669 50.897 514.955 49.6121C516.241 48.3272 517.986 47.6053 519.805 47.6053H581.538C583.357 47.6053 585.102 48.3272 586.388 49.6121C587.674 50.897 588.397 52.6397 588.397 54.4569C588.397 56.2741 587.674 58.0168 586.388 59.3017C585.102 60.5867 583.357 61.3085 581.538 61.3085Z" fill="#CCCCCC"/>
<path d="M419.061 142.171C429.952 142.171 438.781 133.352 438.781 122.473C438.781 111.593 429.952 102.774 419.061 102.774C408.17 102.774 399.341 111.593 399.341 122.473C399.341 133.352 408.17 142.171 419.061 142.171Z" fill="#008CCF"/>
<path d="M417.106 129.987C416.663 129.988 416.231 129.845 415.876 129.579L415.854 129.562L411.219 126.018C411.004 125.854 410.822 125.649 410.686 125.415C410.55 125.181 410.461 124.923 410.425 124.654C410.389 124.386 410.406 124.113 410.476 123.852C410.546 123.59 410.667 123.345 410.831 123.13C410.996 122.915 411.202 122.735 411.437 122.6C411.671 122.464 411.93 122.377 412.199 122.342C412.468 122.307 412.741 122.325 413.002 122.395C413.264 122.466 413.509 122.587 413.724 122.753L416.726 125.052L423.819 115.811C423.984 115.597 424.189 115.417 424.423 115.282C424.657 115.147 424.916 115.059 425.184 115.023C425.452 114.988 425.724 115.006 425.985 115.076C426.246 115.145 426.491 115.266 426.706 115.43L426.662 115.49L426.707 115.431C427.14 115.763 427.423 116.254 427.495 116.794C427.566 117.335 427.42 117.882 427.088 118.315L418.744 129.184C418.551 129.435 418.303 129.638 418.019 129.777C417.735 129.916 417.423 129.988 417.106 129.987Z" fill="white"/>
<path d="M676.28 230.385C687.171 230.385 696 221.566 696 210.687C696 199.808 687.171 190.989 676.28 190.989C665.389 190.989 656.56 199.808 656.56 210.687C656.56 221.566 665.389 230.385 676.28 230.385Z" fill="#3F3D56"/>
<path d="M674.325 218.202C673.882 218.202 673.45 218.059 673.095 217.793L673.073 217.777L668.438 214.232C668.223 214.069 668.041 213.864 667.905 213.63C667.769 213.396 667.68 213.137 667.644 212.869C667.608 212.601 667.625 212.328 667.695 212.066C667.765 211.805 667.886 211.559 668.05 211.345C668.215 211.13 668.421 210.949 668.656 210.814C668.89 210.679 669.149 210.591 669.418 210.556C669.687 210.521 669.96 210.539 670.221 210.61C670.483 210.68 670.728 210.802 670.943 210.967L673.945 213.267L681.038 204.026C681.203 203.811 681.408 203.631 681.642 203.496C681.876 203.361 682.135 203.273 682.403 203.238C682.671 203.203 682.943 203.22 683.204 203.29C683.465 203.36 683.71 203.481 683.925 203.645L683.881 203.705L683.926 203.646C684.359 203.978 684.642 204.468 684.714 205.009C684.785 205.549 684.639 206.096 684.307 206.529L675.963 217.399C675.77 217.649 675.522 217.852 675.238 217.991C674.954 218.131 674.642 218.202 674.325 218.202Z" fill="white"/>
<path d="M613.69 39.3968C624.581 39.3968 633.41 30.5775 633.41 19.6984C633.41 8.81927 624.581 0 613.69 0C602.799 0 593.97 8.81927 593.97 19.6984C593.97 30.5775 602.799 39.3968 613.69 39.3968Z" fill="#3F3D56"/>
<path d="M611.735 27.2129C611.291 27.2137 610.86 27.0704 610.505 26.8046L610.483 26.7881L605.848 23.2438C605.632 23.0799 605.451 22.8751 605.315 22.6411C605.179 22.4071 605.09 22.1486 605.054 21.8803C605.018 21.612 605.035 21.3392 605.105 21.0776C605.175 20.816 605.295 20.5708 605.46 20.3559C605.625 20.141 605.831 19.9608 606.065 19.8255C606.3 19.6902 606.559 19.6024 606.828 19.5674C607.097 19.5323 607.37 19.5506 607.631 19.6212C607.893 19.6918 608.138 19.8132 608.353 19.9786L611.354 22.2778L618.448 13.0368C618.613 12.8225 618.818 12.6426 619.052 12.5075C619.286 12.3723 619.544 12.2846 619.813 12.2493C620.081 12.2139 620.353 12.2316 620.614 12.3015C620.875 12.3713 621.12 12.4918 621.335 12.6562L621.291 12.716L621.336 12.657C621.769 12.9893 622.052 13.4795 622.123 14.0201C622.195 14.5607 622.049 15.1075 621.717 15.5406L613.373 26.4102C613.18 26.6607 612.932 26.8634 612.648 27.0026C612.364 27.1418 612.052 27.2138 611.735 27.2129Z" fill="white"/>
<path d="M327.525 531H0.857396C0.630001 531 0.411918 530.91 0.251125 530.749C0.0903319 530.589 0 530.371 0 530.144C0 529.916 0.0903319 529.699 0.251125 529.538C0.411918 529.377 0.630001 529.287 0.857396 529.287H327.525C327.753 529.287 327.971 529.377 328.132 529.538C328.293 529.699 328.383 529.916 328.383 530.144C328.383 530.371 328.293 530.589 328.132 530.749C327.971 530.91 327.753 531 327.525 531Z" fill="#3F3D56"/>
</g>
<defs>
<clipPath id="clip0_19_1733">
<rect width="696" height="531" fill="white"/>
</clipPath>
</defs>
</svg>
