<svg width="674" height="435" viewBox="0 0 674 435" fill="none" xmlns="http://www.w3.org/2000/svg">
<g clip-path="url(#clip0_90_286)">
<path d="M657.122 434.548H16.2832C11.9086 434.543 7.71468 432.803 4.6214 429.71C1.52812 426.616 -0.211853 422.422 -0.216797 418.048V22.894C-0.213232 19.6892 1.06144 16.6166 3.32758 14.3504C5.59371 12.0842 8.66623 10.8094 11.8711 10.8057H661.325C664.585 10.8094 667.711 12.1062 670.016 14.4116C672.321 16.717 673.618 19.8427 673.622 23.103V418.048C673.617 422.422 671.877 426.616 668.784 429.71C665.69 432.803 661.496 434.543 657.122 434.548Z" fill="#F2F2F2"/>
<path d="M636.402 413.715H39.1571C30.4021 413.715 23.2795 407.046 23.2795 398.847V54.7423C23.2795 48.6622 28.5576 43.7155 35.0452 43.7155H640.319C646.914 43.7155 652.28 48.7438 652.28 54.924V398.847C652.28 407.046 645.157 413.715 636.402 413.715Z" fill="white"/>
<path d="M673.392 24.9502H-0.448486V16.5498C-0.442143 12.1607 1.30493 7.95333 4.40945 4.85072C7.51398 1.74811 11.7224 0.00363937 16.1115 0H656.832C661.221 0.00360236 665.429 1.74806 668.534 4.85068C671.638 7.95329 673.385 12.1607 673.392 16.5498V24.9502Z" fill="#3F3D56"/>
<path d="M29.6469 16.7834C32.0126 16.7834 33.9304 14.8656 33.9304 12.5C33.9304 10.1343 32.0126 8.21655 29.6469 8.21655C27.2813 8.21655 25.3635 10.1343 25.3635 12.5C25.3635 14.8656 27.2813 16.7834 29.6469 16.7834Z" fill="white"/>
<path d="M45.9057 16.7834C48.2714 16.7834 50.1891 14.8656 50.1891 12.5C50.1891 10.1343 48.2714 8.21655 45.9057 8.21655C43.5401 8.21655 41.6223 10.1343 41.6223 12.5C41.6223 14.8656 43.5401 16.7834 45.9057 16.7834Z" fill="white"/>
<path d="M62.1645 16.7834C64.5302 16.7834 66.4479 14.8656 66.4479 12.5C66.4479 10.1343 64.5302 8.21655 62.1645 8.21655C59.7989 8.21655 57.8811 10.1343 57.8811 12.5C57.8811 14.8656 59.7989 16.7834 62.1645 16.7834Z" fill="white"/>
<path d="M323.61 118.954H206.802C205.061 118.954 203.391 118.263 202.159 117.031C200.928 115.8 200.236 114.13 200.236 112.388C200.236 110.647 200.928 108.977 202.159 107.745C203.391 106.514 205.061 105.822 206.802 105.822H323.61C325.352 105.822 327.022 106.514 328.253 107.745C329.485 108.977 330.177 110.647 330.177 112.388C330.177 114.13 329.485 115.8 328.253 117.031C327.022 118.263 325.352 118.954 323.61 118.954Z" fill="#CCCCCC"/>
<path d="M468.757 118.954H351.948C350.207 118.954 348.537 118.263 347.305 117.031C346.074 115.8 345.382 114.13 345.382 112.388C345.382 110.647 346.074 108.977 347.305 107.745C348.537 106.514 350.207 105.822 351.948 105.822H468.757C470.498 105.822 472.168 106.514 473.4 107.745C474.631 108.977 475.323 110.647 475.323 112.388C475.323 114.13 474.631 115.8 473.4 117.031C472.168 118.263 470.498 118.954 468.757 118.954Z" fill="#CCCCCC"/>
<path d="M468.757 143.837H265.552C263.811 143.837 262.14 143.145 260.909 141.913C259.678 140.682 258.986 139.012 258.986 137.27C258.986 135.529 259.678 133.859 260.909 132.628C262.14 131.396 263.811 130.704 265.552 130.704H468.757C470.498 130.704 472.168 131.396 473.4 132.628C474.631 133.859 475.323 135.529 475.323 137.27C475.323 139.012 474.631 140.682 473.4 141.913C472.168 143.145 470.498 143.837 468.757 143.837Z" fill="#CCCCCC"/>
<path d="M323.61 93.7266H206.802C205.062 93.7245 203.394 93.0317 202.165 91.8006C200.935 90.5694 200.244 88.9005 200.244 87.1605C200.244 85.4205 200.935 83.7515 202.165 82.5204C203.394 81.2892 205.062 80.5965 206.802 80.5944H323.61C324.473 80.5933 325.328 80.7623 326.126 81.0918C326.923 81.4213 327.648 81.9048 328.259 82.5147C328.869 83.1245 329.354 83.8487 329.684 84.6459C330.015 85.443 330.185 86.2975 330.185 87.1605C330.185 88.0235 330.015 88.8779 329.684 89.6751C329.354 90.4723 328.869 91.1965 328.259 91.8063C327.648 92.4162 326.923 92.8996 326.126 93.2291C325.328 93.5586 324.473 93.7277 323.61 93.7266Z" fill="#CCCCCC"/>
<path d="M387.889 94.0722H354.713C352.972 94.0722 351.302 93.3804 350.07 92.149C348.839 90.9176 348.147 89.2475 348.147 87.5061C348.147 85.7646 348.839 84.0945 350.07 82.8631C351.302 81.6317 352.972 80.9399 354.713 80.9399H387.889C389.631 80.9399 391.301 81.6317 392.532 82.8631C393.764 84.0945 394.456 85.7646 394.456 87.5061C394.456 89.2475 393.764 90.9176 392.532 92.149C391.301 93.3804 389.631 94.0722 387.889 94.0722Z" fill="#CCCCCC"/>
<path d="M239.979 143.837H206.802C205.062 143.834 203.394 143.142 202.165 141.911C200.935 140.679 200.244 139.011 200.244 137.27C200.244 135.53 200.935 133.862 202.165 132.63C203.394 131.399 205.062 130.706 206.802 130.704H239.979C240.842 130.703 241.696 130.872 242.494 131.202C243.291 131.531 244.016 132.015 244.627 132.625C245.237 133.234 245.722 133.959 246.052 134.756C246.383 135.553 246.553 136.408 246.553 137.27C246.553 138.133 246.383 138.988 246.052 139.785C245.722 140.582 245.237 141.306 244.627 141.916C244.016 142.526 243.291 143.01 242.494 143.339C241.696 143.669 240.842 143.838 239.979 143.837Z" fill="#CCCCCC"/>
<path d="M323.61 351.955H206.802C205.061 351.955 203.391 351.263 202.159 350.031C200.928 348.8 200.236 347.13 200.236 345.388C200.236 343.647 200.928 341.977 202.159 340.745C203.391 339.514 205.061 338.822 206.802 338.822H323.61C324.473 338.822 325.327 338.992 326.123 339.322C326.92 339.652 327.644 340.136 328.253 340.745C328.863 341.355 329.347 342.079 329.677 342.876C330.007 343.672 330.177 344.526 330.177 345.388C330.177 346.251 330.007 347.105 329.677 347.901C329.347 348.698 328.863 349.422 328.253 350.031C327.644 350.641 326.92 351.125 326.123 351.455C325.327 351.785 324.473 351.955 323.61 351.955Z" fill="#CCCCCC"/>
<path d="M468.757 351.955H351.948C350.207 351.955 348.537 351.263 347.305 350.031C346.074 348.8 345.382 347.13 345.382 345.388C345.382 343.647 346.074 341.977 347.305 340.745C348.537 339.514 350.207 338.822 351.948 338.822H468.757C469.619 338.822 470.473 338.992 471.269 339.322C472.066 339.652 472.79 340.136 473.4 340.745C474.009 341.355 474.493 342.079 474.823 342.876C475.153 343.672 475.323 344.526 475.323 345.388C475.323 346.251 475.153 347.105 474.823 347.901C474.493 348.698 474.009 349.422 473.4 350.031C472.79 350.641 472.066 351.125 471.269 351.455C470.473 351.785 469.619 351.955 468.757 351.955Z" fill="#CCCCCC"/>
<path d="M468.757 376.837H265.552C263.811 376.837 262.14 376.145 260.909 374.913C259.678 373.682 258.986 372.012 258.986 370.27C258.986 368.529 259.678 366.859 260.909 365.628C262.14 364.396 263.811 363.704 265.552 363.704H468.757C469.62 363.703 470.474 363.872 471.272 364.202C472.069 364.531 472.794 365.015 473.405 365.625C474.015 366.234 474.5 366.959 474.83 367.756C475.161 368.553 475.331 369.407 475.331 370.27C475.331 371.133 475.161 371.988 474.83 372.785C474.5 373.582 474.015 374.306 473.405 374.916C472.794 375.526 472.069 376.01 471.272 376.339C470.474 376.669 469.62 376.838 468.757 376.837Z" fill="#CCCCCC"/>
<path d="M323.61 326.727H206.802C205.061 326.727 203.391 326.035 202.159 324.803C200.928 323.572 200.236 321.902 200.236 320.16C200.236 318.419 200.928 316.749 202.159 315.518C203.391 314.286 205.061 313.594 206.802 313.594H323.61C325.352 313.594 327.022 314.286 328.253 315.518C329.485 316.749 330.177 318.419 330.177 320.16C330.177 321.902 329.485 323.572 328.253 324.803C327.022 326.035 325.352 326.727 323.61 326.727Z" fill="#CCCCCC"/>
<path d="M387.889 327.072H354.713C352.972 327.072 351.302 326.38 350.07 325.149C348.839 323.918 348.147 322.248 348.147 320.506C348.147 318.765 348.839 317.095 350.07 315.863C351.302 314.632 352.972 313.94 354.713 313.94H387.889C389.631 313.94 391.301 314.632 392.532 315.863C393.764 317.095 394.456 318.765 394.456 320.506C394.456 322.248 393.764 323.918 392.532 325.149C391.301 326.38 389.631 327.072 387.889 327.072Z" fill="#CCCCCC"/>
<path d="M239.979 376.837H206.802C205.061 376.837 203.391 376.145 202.159 374.913C200.928 373.682 200.236 372.012 200.236 370.27C200.236 368.529 200.928 366.859 202.159 365.628C203.391 364.396 205.061 363.704 206.802 363.704H239.979C240.842 363.703 241.696 363.872 242.494 364.202C243.291 364.531 244.016 365.015 244.627 365.625C245.237 366.234 245.722 366.959 246.052 367.756C246.383 368.553 246.553 369.407 246.553 370.27C246.553 371.133 246.383 371.988 246.052 372.785C245.722 373.582 245.237 374.306 244.627 374.916C244.016 375.526 243.291 376.01 242.494 376.339C241.696 376.669 240.842 376.838 239.979 376.837Z" fill="#CCCCCC"/>
<path d="M293.104 281.462C290.625 281.467 288.244 280.493 286.48 278.752L242.572 235.392C241.71 234.541 241.025 233.527 240.558 232.409C240.091 231.291 239.85 230.092 239.85 228.881C239.85 227.669 240.091 226.47 240.558 225.352C241.025 224.234 241.71 223.22 242.572 222.369L286.303 179.185C288.125 177.394 290.579 176.395 293.133 176.403C295.688 176.411 298.136 177.426 299.946 179.228C301.759 181.044 302.777 183.505 302.777 186.071C302.777 188.637 301.759 191.098 299.947 192.914L267.451 225.411C266.438 226.426 265.87 227.801 265.87 229.234C265.87 230.668 266.438 232.043 267.451 233.057L299.77 265.378C301.09 266.695 301.989 268.374 302.354 270.203C302.718 272.031 302.532 273.927 301.818 275.65C301.104 277.372 299.895 278.844 298.343 279.879C296.792 280.913 294.969 281.464 293.104 281.462Z" fill="#008CCF"/>
<path d="M363.069 281.462C361.205 281.464 359.381 280.913 357.83 279.879C356.279 278.844 355.07 277.372 354.356 275.65C353.642 273.927 353.455 272.031 353.82 270.203C354.184 268.374 355.083 266.695 356.403 265.378L388.723 233.057C389.735 232.043 390.304 230.668 390.304 229.234C390.304 227.801 389.735 226.426 388.723 225.411L356.227 192.914C355.328 192.016 354.615 190.949 354.129 189.774C353.642 188.6 353.392 187.342 353.392 186.071C353.392 184.8 353.642 183.541 354.129 182.367C354.615 181.193 355.328 180.126 356.227 179.228C358.037 177.426 360.485 176.411 363.04 176.403C365.594 176.395 368.049 177.394 369.87 179.185L413.602 222.369C414.464 223.22 415.148 224.234 415.615 225.352C416.082 226.47 416.323 227.669 416.323 228.881C416.323 230.092 416.082 231.292 415.615 232.409C415.148 233.527 414.464 234.541 413.602 235.392L369.693 278.752C367.929 280.493 365.548 281.467 363.069 281.462Z" fill="#008CCF"/>
</g>
<defs>
<clipPath id="clip0_90_286">
<rect width="674" height="435" fill="white"/>
</clipPath>
</defs>
</svg>
