<svg width="569" height="433" viewBox="0 0 569 433" fill="none" xmlns="http://www.w3.org/2000/svg">
<g clip-path="url(#clip0_18_1069)">
<path d="M526.458 393.573C507.815 407.792 485.102 422.196 462.771 428.987C456.334 431.003 449.691 432.29 442.967 432.824C436.681 433.33 430.355 432.838 424.222 431.367C408.106 427.352 393.157 420.322 378.694 412.108C373.968 409.42 369.297 406.609 364.654 403.736C357.073 399.045 349.568 394.189 342.043 389.449C340.916 388.731 339.796 388.027 338.669 387.329H338.663C336.846 386.187 335.025 385.061 333.199 383.95C332.879 383.752 332.558 383.561 332.23 383.362C328.781 381.269 325.273 379.225 321.706 377.227C321.269 376.988 320.832 376.742 320.395 376.503C313.494 372.669 306.401 369.192 299.144 366.086C294.377 364.076 289.549 362.263 284.673 360.718H284.666C282.802 360.129 280.931 359.575 279.053 359.069C273.422 357.522 267.683 356.397 261.885 355.704C253.895 354.736 245.814 354.8 237.841 355.896C237.301 355.971 236.768 356.046 236.229 356.135C214.65 359.596 194.955 371.264 173.28 374.013C172.577 374.102 171.88 374.184 171.177 374.246C170.876 374.273 170.576 374.307 170.275 374.328C163.977 374.867 157.638 374.712 151.373 373.863C133.87 371.551 116.825 364.377 101.481 355.335C65.6087 334.195 36.5175 301.702 18.8306 264.072C15.7934 257.623 13.0968 251.019 10.752 244.286C4.19623 225.617 0.585929 206.038 0.0511125 186.255C-1.60831 117.616 37.337 48.7518 98.483 17.7085C159.636 -13.3349 240.081 -3.0692 289.399 44.6209C319.316 73.5509 336.628 112.754 359.143 147.777C381.657 182.794 413.658 216.245 454.932 221.347C475.958 223.946 497.961 218.919 518.113 225.458C529.271 229.082 538.791 236.017 546.46 244.854C551.615 250.85 555.93 257.523 559.284 264.688C561.742 269.867 563.738 275.255 565.246 280.787C565.526 281.806 565.785 282.825 566.038 283.844C576.077 324.907 560.035 367.953 526.458 393.573Z" fill="#ABABAB"/>
<path d="M190.639 319.237H126.447C116.83 319.237 109.034 327.045 109.034 336.677V336.677C109.034 346.309 116.83 354.117 126.447 354.117H190.639C200.256 354.117 208.053 346.309 208.053 336.677C208.053 327.045 200.256 319.237 190.639 319.237Z" fill="#3F3D56"/>
<path d="M171.177 345.226V374.245C164.583 374.884 157.937 374.756 151.373 373.862V345.226H171.177Z" fill="#3F3D56"/>
<path d="M237.841 355.896C237.301 355.971 236.768 356.046 236.229 356.135C214.65 359.596 194.955 371.263 173.28 374.013C172.577 374.102 171.88 374.184 171.177 374.245C170.876 374.273 170.576 374.307 170.275 374.327C164.983 369.137 159.691 363.61 154.719 357.886C152.022 354.788 149.413 351.628 146.961 348.427C140.597 340.165 135.202 331.671 131.637 323.327C131.999 319.326 129.514 310.073 128.325 302.987L128.318 302.98C127.813 300.005 127.54 297.42 127.793 295.758C129.24 286.17 137.059 287.271 139.463 277.873C141.632 276.071 143.94 274.445 146.367 273.011C146.77 272.771 147.18 272.532 147.603 272.293L173.69 254.237L183.66 264.031L198.834 278.94L215.278 295.088L201.32 309.211C201.32 309.211 212.983 322.677 226.621 340.631C230.281 345.452 234.085 350.602 237.841 355.896Z" fill="#2F2E41"/>
<path d="M462.771 345.226V428.987C456.334 431.003 449.691 432.29 442.967 432.824V345.226H462.771Z" fill="#3F3D56"/>
<path d="M488.38 338.387H424.188C414.571 338.387 406.774 346.195 406.774 355.827V355.827C406.774 365.459 414.571 373.267 424.188 373.267H488.38C497.997 373.267 505.793 365.459 505.793 355.827C505.793 346.195 497.997 338.387 488.38 338.387Z" fill="#3F3D56"/>
<path d="M332.23 383.362C328.781 381.269 325.273 379.224 321.706 377.227C321.269 376.988 320.832 376.742 320.395 376.502L322.744 375.497L329.082 372.768L329.143 372.741L329.211 372.973L332.23 383.362Z" fill="#FFB6B6"/>
<path d="M342.043 389.449C340.916 388.731 339.796 388.026 338.669 387.329H338.663C336.846 386.187 335.025 385.06 333.2 383.95C332.879 383.752 332.558 383.56 332.23 383.362C328.781 381.269 325.273 379.224 321.706 377.227C321.269 376.988 320.832 376.742 320.395 376.502C313.494 372.668 306.401 369.192 299.144 366.086C294.377 364.075 289.549 362.263 284.673 360.717H284.666L280.835 354.295L263.592 325.372L259.802 319.018C259.802 319.018 246.875 322.848 228.581 326.521C221.922 327.862 214.561 329.175 206.837 330.283C198.581 331.459 189.922 332.396 181.318 332.847C177.214 333.066 173.123 333.176 169.094 333.141C158.68 333.073 148.676 332.095 139.914 329.77C136.991 327.02 128.182 323.279 121.872 319.853H121.865C119.216 318.417 117.017 317.042 115.863 315.818C109.211 308.773 114.893 303.281 108.979 295.594C108.899 292.774 109.043 289.952 109.409 287.154C109.471 286.689 109.532 286.217 109.607 285.739L111.472 254.032L125.321 252.199L146.395 249.408L169.224 246.385L171.737 266.096C171.737 266.096 189.512 265.193 212.034 265.494C248.207 265.987 296.61 269.598 303.166 285.096C303.781 286.552 304.395 288.023 305.01 289.493C306.471 293.009 307.919 296.542 309.353 300.094C314.55 312.952 319.508 325.933 324.035 338.202C326.849 345.835 329.498 353.194 331.936 360.081C333.896 365.621 335.713 370.86 337.372 375.682C338.888 380.086 340.261 384.142 341.483 387.78C341.674 388.348 341.859 388.909 342.043 389.449Z" fill="#2F2E41"/>
<path d="M214.646 197.343L170.903 160.137L199.362 131.291L219.217 163.861L292.815 178.475C295.028 176.807 297.678 175.82 300.442 175.634C303.205 175.448 305.963 176.071 308.379 177.428C310.794 178.785 312.764 180.816 314.047 183.275C315.33 185.733 315.871 188.512 315.604 191.273C315.337 194.034 314.274 196.658 312.544 198.824C310.814 200.99 308.492 202.606 305.861 203.473C303.231 204.341 300.405 204.423 297.728 203.709C295.052 202.996 292.64 201.519 290.787 199.456L214.646 197.343Z" fill="#A0616A"/>
<path d="M132.244 111.238C127.189 127.709 175.334 166.992 175.334 166.992C175.869 163.038 203.166 197.135 205.023 194.047C210.301 185.271 216.109 163.577 222.203 160.804C225.687 159.218 205.697 137.179 205.697 137.179C205.697 137.179 195.499 123.667 182.035 106.543C178.319 101.631 173.421 97.7406 167.8 95.234C162.178 92.7274 156.014 91.6861 149.882 92.207C149.882 92.207 137.299 94.7677 132.244 111.238Z" fill="#3F3D56"/>
<path d="M153.531 74.7757C169.871 74.7757 183.117 61.5097 183.117 45.1453C183.117 28.7809 169.871 15.5149 153.531 15.5149C137.191 15.5149 123.946 28.7809 123.946 45.1453C123.946 61.5097 137.191 74.7757 153.531 74.7757Z" fill="#A0616A"/>
<path d="M168.324 94.3594C174.698 98.1544 178.511 105.127 180.699 112.223C184.751 125.359 187.191 138.941 187.963 152.668L190.275 193.765L218.906 281.271C194.092 302.299 100.821 286.05 100.821 286.05C100.821 286.05 97.9578 285.094 100.821 282.227C103.684 279.359 106.471 281.9 103.608 279.032C100.745 276.165 102.719 279.359 103.673 276.492C104.628 273.624 103.673 275.536 102.719 274.58C101.764 273.624 110.107 265.022 110.107 265.022L102.472 214.792L92.9285 113.476C104.381 99.1384 127.413 90.6867 127.413 90.6867L133.365 79.9581L163.121 82.3422L168.324 94.3594Z" fill="#3F3D56"/>
<path d="M177.92 29.4031C180.219 31.1208 181.923 33.5174 182.791 36.2557C183.124 31.7808 183.145 27.288 182.854 22.8101C182.505 19.6635 180.293 18.9557 177.732 18.1356C175.419 17.3946 172.803 16.5576 172.099 13.503C162.799 4.44204 146.61 4.89894 135.53 8.05954C129.434 9.79876 125.926 12.0333 125.612 13.3423L125.547 13.6118L125.299 13.7358C120.6 16.089 119.685 23.5202 119.745 29.3397C119.86 40.3039 123.64 52.7566 125.769 53.7682C125.882 53.8217 125.911 53.8008 125.959 53.76C129.166 51.1937 133.078 53.9551 134.797 55.4562C135.811 48.6417 139.076 42.3641 144.07 37.6259C149.064 32.8877 155.5 29.9624 162.349 29.317C164.586 29.1005 166.804 28.7279 168.989 28.2018C170.098 27.9147 171.237 27.7649 172.382 27.756C174.352 27.726 176.285 28.3008 177.92 29.4031Z" fill="#2F2E41"/>
<path d="M140.641 241.985L131.59 237.343C131.106 236.997 130.761 236.487 130.62 235.908C130.479 235.329 130.551 234.718 130.822 234.187C131.094 233.656 131.547 233.241 132.098 233.017C132.65 232.793 133.264 232.776 133.828 232.967L142.878 237.609C143.363 237.955 143.707 238.465 143.848 239.044C143.989 239.623 143.918 240.234 143.646 240.765C143.375 241.296 142.922 241.711 142.37 241.935C141.818 242.159 141.204 242.177 140.641 241.985Z" fill="#008CCF"/>
<path d="M110.182 229.548L95.2939 174.039L135.078 166.496L132.939 204.597L185.212 258.503C187.979 258.39 190.72 259.085 193.099 260.505C195.479 261.925 197.395 264.007 198.613 266.498C199.831 268.989 200.299 271.782 199.96 274.535C199.621 277.288 198.49 279.882 196.704 282.003C194.918 284.123 192.555 285.677 189.902 286.475C187.25 287.273 184.422 287.281 181.765 286.498C179.108 285.715 176.736 284.174 174.938 282.064C173.141 279.954 171.994 277.366 171.64 274.615L110.182 229.548Z" fill="#A0616A"/>
<path d="M91.2228 111.802C77.7186 122.479 95.0513 182.202 95.0513 182.202C97.7349 179.252 100.853 222.844 104.133 221.36C113.456 217.141 130.543 202.594 137.13 203.78C140.897 204.458 136.95 174.946 136.95 174.946C136.95 174.946 136.224 158.025 134.86 136.272C134.588 130.114 132.765 124.126 129.561 118.865C126.357 113.603 121.875 109.238 116.534 106.178C116.534 106.178 104.727 101.125 91.2228 111.802Z" fill="#3F3D56"/>
<path d="M559.284 264.687L18.8306 264.072C15.7933 257.623 13.0968 251.018 10.752 244.286L546.46 244.854C551.615 250.85 555.93 257.523 559.284 264.687Z" fill="#3F3D56"/>
<path d="M387.148 408.189C384.355 409.543 381.537 410.849 378.694 412.108C373.968 409.42 369.297 406.609 364.654 403.736L381.876 396.158L387.148 408.189Z" fill="#FFB6B6"/>
<path d="M512.718 313.944C509.918 317.705 507.029 321.392 504.052 325.003C501.307 328.333 498.489 331.6 495.598 334.803C494.403 336.13 493.194 337.45 491.958 338.757C489.684 341.198 487.36 343.599 484.986 345.958C480.711 347.306 472.052 349.679 462.771 351.895C456.018 353.502 448.936 355.027 442.967 355.998C439.626 356.599 436.246 356.96 432.854 357.079C428.825 357.113 424.734 357.004 420.63 356.785C416 356.539 411.363 356.156 406.781 355.663C394.865 354.412 383.324 352.462 373.367 350.458C369.721 349.734 366.292 348.995 363.137 348.277C357.162 346.929 352.163 345.671 348.544 344.713C344.467 343.647 342.145 342.956 342.145 342.956L331.936 360.081L326.637 368.965L322.745 375.497L321.707 377.227C321.269 376.988 320.832 376.742 320.395 376.502C313.494 372.668 306.401 369.192 299.144 366.086C294.377 364.075 289.549 362.263 284.673 360.717H284.666C282.802 360.129 280.931 359.575 279.053 359.069C279.64 357.489 280.235 355.898 280.835 354.295C281.955 351.307 283.098 348.29 284.264 345.247C286.783 338.654 289.392 331.965 292.076 325.311C294.275 319.846 296.515 314.402 298.782 309.033C299.827 306.557 301.95 304.382 304.921 302.474C306.341 301.578 307.822 300.782 309.353 300.094C317.855 296.216 330.379 293.693 344.181 292.072C345.321 291.942 346.468 291.812 347.622 291.689C359.047 290.485 371.168 289.863 382.504 289.575C388.179 289.432 393.656 289.377 398.75 289.37C400.396 289.37 401.996 289.375 403.551 289.384H403.558C407.758 289.404 411.623 289.466 415.024 289.534C415.686 289.548 416.328 289.569 416.956 289.582H416.963C417.386 289.589 417.803 289.603 418.213 289.61C425.649 289.801 430.211 290.034 430.211 290.034L431.98 276.136L432.342 273.332L432.683 270.665V270.658L432.724 270.323L433.004 270.316L437.921 270.22L479.25 269.413L501.826 268.969L498.248 284.33L492.341 309.676C492.941 313.684 512.923 310.545 512.718 313.944Z" fill="#2F2E41"/>
<path d="M392.242 405.658C390.555 406.52 388.855 407.368 387.148 408.189C384.355 409.543 381.537 410.849 378.694 412.107C373.968 409.42 369.297 406.609 364.653 403.736C357.073 399.044 349.568 394.189 342.043 389.449C340.916 388.731 339.796 388.026 338.669 387.329H338.663C335.562 382.719 332.4 377.918 329.211 372.973C329.164 372.905 329.123 372.836 329.082 372.768C328.262 371.51 327.447 370.242 326.637 368.965C321.536 360.964 316.407 352.62 311.429 344.098L324.035 338.202L347.472 327.246L351.515 325.358L363.137 348.277L373.504 368.719L375.812 373.267L392.242 405.658Z" fill="#2F2E41"/>
<path d="M395.775 295.627L455.528 237.914L472.09 190.95L447.661 180.311C435.113 192.349 421.549 229.844 421.549 229.844L380.43 282.235C380.11 282.345 379.79 282.462 379.475 282.601C377.623 283.419 376.013 284.702 374.8 286.325C373.588 287.948 372.814 289.857 372.553 291.868C372.293 293.878 372.555 295.921 373.313 297.801C374.072 299.68 375.301 301.332 376.884 302.596C378.466 303.861 380.347 304.695 382.345 305.018C384.343 305.342 386.391 305.143 388.29 304.443C390.189 303.742 391.876 302.562 393.187 301.018C394.498 299.474 395.389 297.617 395.775 295.627Z" fill="#FFB8B8"/>
<path d="M440.787 185.555L471.773 195.407L471.89 195.387C483.423 193.452 492.993 174.587 498.99 159.102C500.963 153.995 500.926 148.327 498.887 143.246C496.848 138.164 492.958 134.048 488.004 131.729C484.338 130.042 480.275 129.417 476.272 129.923C472.27 130.428 468.489 132.045 465.356 134.59L449.444 147.612L440.787 185.555Z" fill="#008CCF"/>
<path d="M512.594 314.636L512.775 314.395C522.442 301.554 509.22 269.753 507.221 265.141L516.21 262.475L514.643 245.333L513.888 237.689L520.878 231.042L520.901 230.872L525.708 196.612L531.997 173.938C534.368 165.366 534.418 156.316 532.142 147.718C529.867 139.121 525.348 131.284 519.049 125.013L506.192 112.229L490.789 88.0819L464.962 87.4141L455.675 103.937C447.038 105.702 439.294 110.446 433.79 117.342C428.287 124.238 425.373 132.849 425.557 141.675L426.432 185.662L417.165 240.162L416.905 250.062L407.809 259.675L409.491 269.393L402.687 272.107L399.358 285.916C398.086 287.51 389.691 298.138 389.614 301.101C389.603 301.546 389.92 301.985 390.611 302.48C396.045 306.374 426.42 314.812 440.09 309.739C454.652 304.34 511.722 314.48 512.297 314.583L512.594 314.636Z" fill="#008CCF"/>
<path d="M475.62 80.0118C494.516 80.0118 509.835 64.6699 509.835 45.7447C509.835 26.8195 494.516 11.4775 475.62 11.4775C456.723 11.4775 441.404 26.8195 441.404 45.7447C441.404 64.6699 456.723 80.0118 475.62 80.0118Z" fill="#FFB8B8"/>
<path d="M471.446 80.4702C476.744 80.553 482.04 80.1823 487.276 79.3623C492.465 78.3054 504.074 69.7851 507.311 64.658C509.715 60.8486 511.253 54.9 512.119 50.5808C513.286 44.8651 513.242 38.9676 511.989 33.2703C510.735 27.573 508.301 22.2027 504.844 17.5074C503.515 15.5435 501.681 13.9757 499.536 12.97C499.346 12.8956 499.15 12.8296 498.952 12.7731C495.826 11.9494 493.017 10.2086 490.886 7.77442C490.473 7.28207 490.025 6.82016 489.545 6.39229C487.136 4.35652 484.281 2.92052 481.212 2.20169C476.258 0.873915 469.089 2.19191 459.904 6.12287C455.29 8.09786 450.243 7.3831 446.361 6.53969C446.143 6.49756 445.918 6.51328 445.709 6.58527C445.499 6.65726 445.311 6.78303 445.165 6.95005C443.513 8.50304 441.336 9.37234 439.071 9.38322C437.683 9.44425 436.227 11.3685 434.467 13.8778C434.068 14.4474 433.602 15.1122 433.266 15.5165L433.221 14.7397L432.436 15.6063C431.202 16.9683 430.333 18.621 429.908 20.4102C429.484 22.1995 429.518 24.0672 430.009 25.8394C430.499 27.6117 431.429 29.2308 432.713 30.5461C433.996 31.8614 435.591 32.83 437.349 33.3618C438.745 33.7337 440.175 33.9619 441.617 34.0429C442.49 34.1217 443.394 34.2031 444.26 34.3535C447.039 34.9235 449.623 36.2055 451.76 38.0742C453.897 39.943 455.513 42.3348 456.452 45.016C456.673 45.6358 457.034 46.1962 457.507 46.654C457.979 47.1118 458.551 47.4548 459.176 47.6564C459.802 47.858 460.466 47.9128 461.116 47.8168C461.767 47.7207 462.386 47.4762 462.927 47.1022C463.829 46.3988 464.888 45.9242 466.013 45.7191C467.137 45.514 468.295 45.5843 469.387 45.9242C470.33 46.4496 471.065 47.2839 471.467 48.2872C471.956 49.4049 472.766 50.3515 473.794 51.0062C477.311 52.8221 477.553 60.8664 476.29 67.5724C475.073 74.0363 472.666 78.7124 470.438 78.9436C468.722 79.1213 468.526 79.2433 468.402 79.5472L468.291 79.8192L468.484 80.0736C469.431 80.4176 470.441 80.5529 471.446 80.4702Z" fill="#2F2E41"/>
<path d="M449.283 175.194L436.091 148.853C416.942 150.163 378.936 172.337 378.936 172.337L307.029 187.606C304.899 186.786 302.59 186.542 300.336 186.9C298.082 187.257 295.962 188.203 294.189 189.642C292.416 191.081 291.052 192.962 290.236 195.096C289.42 197.231 289.179 199.543 289.539 201.8C289.898 204.057 290.845 206.179 292.284 207.953C293.723 209.728 295.603 211.091 297.735 211.906C299.868 212.721 302.176 212.959 304.43 212.596C306.683 212.233 308.801 211.282 310.571 209.839L402.041 203.272L449.283 175.194Z" fill="#FFB8B8"/>
<path d="M443.962 179.52L478.417 153.876L484.486 131.972C485.662 127.667 485.612 123.119 484.342 118.842C483.073 114.564 480.634 110.727 477.301 107.765C472.756 103.78 466.87 101.672 460.833 101.867C454.796 102.062 449.058 104.546 444.779 108.816C431.813 121.777 417.025 139.859 420.202 152.398L420.234 152.525L443.962 179.52Z" fill="#008CCF"/>
<path d="M401.311 248.109H309.121V260.42H401.311V248.109Z" fill="white"/>
<path d="M165.714 248.109H73.5233V260.42H165.714V248.109Z" fill="white"/>
<path d="M176.479 188.907V247.522C176.479 248.269 176.776 248.986 177.303 249.514C177.831 250.042 178.546 250.339 179.291 250.34H266.022C266.768 250.339 267.483 250.042 268.01 249.514C268.537 248.986 268.834 248.269 268.835 247.522V188.907C268.833 188.161 268.536 187.446 268.009 186.918C267.481 186.391 266.767 186.094 266.022 186.093H179.291C178.546 186.094 177.832 186.391 177.305 186.918C176.777 187.446 176.48 188.161 176.479 188.907Z" fill="#3F3D56"/>
<path d="M178.513 189.637V246.799C178.514 247.198 178.673 247.581 178.954 247.863C179.236 248.145 179.618 248.304 180.017 248.305H265.3C265.698 248.304 266.08 248.145 266.362 247.863C266.644 247.581 266.802 247.198 266.803 246.799V189.637C266.803 189.237 266.645 188.854 266.363 188.571C266.081 188.288 265.699 188.129 265.3 188.128H180.017C179.618 188.129 179.235 188.288 178.953 188.571C178.672 188.854 178.513 189.237 178.513 189.637Z" fill="#008CCF"/>
<path d="M174.665 258.954C174.824 259.153 175.026 259.314 175.256 259.424C175.485 259.535 175.737 259.591 175.992 259.59H268.86C269.114 259.59 269.364 259.533 269.594 259.423C269.823 259.313 270.025 259.154 270.185 258.957C270.345 258.759 270.459 258.528 270.519 258.281C270.578 258.034 270.582 257.776 270.53 257.527L269.089 250.669C269.029 250.39 268.9 250.13 268.714 249.912C268.528 249.695 268.291 249.528 268.025 249.426C267.831 249.35 267.626 249.311 267.418 249.312H177.428C177.22 249.311 177.015 249.35 176.821 249.426C176.555 249.528 176.317 249.695 176.132 249.912C175.946 250.13 175.817 250.39 175.757 250.669L174.316 257.527C174.265 257.776 174.269 258.033 174.33 258.28C174.39 258.527 174.504 258.757 174.665 258.954Z" fill="#2F2E41"/>
<path d="M264.232 252.266H266.425C266.609 252.266 266.758 252.116 266.758 251.932V250.881C266.758 250.696 266.609 250.547 266.425 250.547H264.232C264.047 250.547 263.898 250.696 263.898 250.881V251.932C263.898 252.116 264.047 252.266 264.232 252.266Z" fill="#3F3D56"/>
<path d="M258.511 252.266H260.705C260.889 252.266 261.038 252.116 261.038 251.932V250.881C261.038 250.696 260.889 250.547 260.705 250.547H258.511C258.327 250.547 258.178 250.696 258.178 250.881V251.932C258.178 252.116 258.327 252.266 258.511 252.266Z" fill="#3F3D56"/>
<path d="M252.791 252.266H254.984C255.168 252.266 255.317 252.116 255.317 251.932V250.881C255.317 250.696 255.168 250.547 254.984 250.547H252.791C252.606 250.547 252.457 250.696 252.457 250.881V251.932C252.457 252.116 252.606 252.266 252.791 252.266Z" fill="#3F3D56"/>
<path d="M247.07 252.266H249.263C249.448 252.266 249.597 252.116 249.597 251.932V250.881C249.597 250.696 249.448 250.547 249.263 250.547H247.07C246.886 250.547 246.737 250.696 246.737 250.881V251.932C246.737 252.116 246.886 252.266 247.07 252.266Z" fill="#3F3D56"/>
<path d="M241.349 252.266H243.543C243.727 252.266 243.876 252.116 243.876 251.932V250.881C243.876 250.696 243.727 250.547 243.543 250.547H241.349C241.165 250.547 241.016 250.696 241.016 250.881V251.932C241.016 252.116 241.165 252.266 241.349 252.266Z" fill="#3F3D56"/>
<path d="M235.629 252.266H237.822C238.006 252.266 238.156 252.116 238.156 251.932V250.881C238.156 250.696 238.006 250.547 237.822 250.547H235.629C235.445 250.547 235.295 250.696 235.295 250.881V251.932C235.295 252.116 235.445 252.266 235.629 252.266Z" fill="#3F3D56"/>
<path d="M229.908 252.266H232.102C232.286 252.266 232.435 252.116 232.435 251.932V250.881C232.435 250.696 232.286 250.547 232.102 250.547H229.908C229.724 250.547 229.575 250.696 229.575 250.881V251.932C229.575 252.116 229.724 252.266 229.908 252.266Z" fill="#3F3D56"/>
<path d="M224.188 252.266H226.381C226.565 252.266 226.715 252.116 226.715 251.932V250.881C226.715 250.696 226.565 250.547 226.381 250.547H224.188C224.004 250.547 223.854 250.696 223.854 250.881V251.932C223.854 252.116 224.004 252.266 224.188 252.266Z" fill="#3F3D56"/>
<path d="M218.467 252.266H220.661C220.845 252.266 220.994 252.116 220.994 251.932V250.881C220.994 250.696 220.845 250.547 220.661 250.547H218.467C218.283 250.547 218.134 250.696 218.134 250.881V251.932C218.134 252.116 218.283 252.266 218.467 252.266Z" fill="#3F3D56"/>
<path d="M212.746 252.266H214.94C215.124 252.266 215.273 252.116 215.273 251.932V250.881C215.273 250.696 215.124 250.547 214.94 250.547H212.746C212.562 250.547 212.413 250.696 212.413 250.881V251.932C212.413 252.116 212.562 252.266 212.746 252.266Z" fill="#3F3D56"/>
<path d="M207.026 252.266H209.219C209.404 252.266 209.553 252.116 209.553 251.932V250.881C209.553 250.696 209.404 250.547 209.219 250.547H207.026C206.842 250.547 206.693 250.696 206.693 250.881V251.932C206.693 252.116 206.842 252.266 207.026 252.266Z" fill="#3F3D56"/>
<path d="M201.305 252.266H203.499C203.683 252.266 203.832 252.116 203.832 251.932V250.881C203.832 250.696 203.683 250.547 203.499 250.547H201.305C201.121 250.547 200.972 250.696 200.972 250.881V251.932C200.972 252.116 201.121 252.266 201.305 252.266Z" fill="#3F3D56"/>
<path d="M195.585 252.266H197.778C197.962 252.266 198.112 252.116 198.112 251.932V250.881C198.112 250.696 197.962 250.547 197.778 250.547H195.585C195.401 250.547 195.251 250.696 195.251 250.881V251.932C195.251 252.116 195.401 252.266 195.585 252.266Z" fill="#3F3D56"/>
<path d="M189.864 252.266H192.058C192.242 252.266 192.391 252.116 192.391 251.932V250.881C192.391 250.696 192.242 250.547 192.058 250.547H189.864C189.68 250.547 189.531 250.696 189.531 250.881V251.932C189.531 252.116 189.68 252.266 189.864 252.266Z" fill="#3F3D56"/>
<path d="M184.144 252.266H186.337C186.521 252.266 186.671 252.116 186.671 251.932V250.881C186.671 250.696 186.521 250.547 186.337 250.547H184.144C183.96 250.547 183.81 250.696 183.81 250.881V251.932C183.81 252.116 183.96 252.266 184.144 252.266Z" fill="#3F3D56"/>
<path d="M178.423 252.266H180.617C180.801 252.266 180.95 252.116 180.95 251.932V250.881C180.95 250.696 180.801 250.547 180.617 250.547H178.423C178.239 250.547 178.09 250.696 178.09 250.881V251.932C178.09 252.116 178.239 252.266 178.423 252.266Z" fill="#3F3D56"/>
<path d="M264.299 255.13H266.493C266.677 255.13 266.826 254.981 266.826 254.796V253.745C266.826 253.561 266.677 253.411 266.493 253.411H264.299C264.115 253.411 263.966 253.561 263.966 253.745V254.796C263.966 254.981 264.115 255.13 264.299 255.13Z" fill="#3F3D56"/>
<path d="M258.579 255.13H260.772C260.956 255.13 261.106 254.981 261.106 254.796V253.745C261.106 253.561 260.956 253.411 260.772 253.411H258.579C258.394 253.411 258.245 253.561 258.245 253.745V254.796C258.245 254.981 258.394 255.13 258.579 255.13Z" fill="#3F3D56"/>
<path d="M252.858 255.13H255.052C255.236 255.13 255.385 254.981 255.385 254.796V253.745C255.385 253.561 255.236 253.411 255.052 253.411H252.858C252.674 253.411 252.525 253.561 252.525 253.745V254.796C252.525 254.981 252.674 255.13 252.858 255.13Z" fill="#3F3D56"/>
<path d="M247.137 255.13H249.331C249.515 255.13 249.664 254.981 249.664 254.796V253.745C249.664 253.561 249.515 253.411 249.331 253.411H247.137C246.953 253.411 246.804 253.561 246.804 253.745V254.796C246.804 254.981 246.953 255.13 247.137 255.13Z" fill="#3F3D56"/>
<path d="M241.417 255.13H243.61C243.795 255.13 243.944 254.981 243.944 254.796V253.745C243.944 253.561 243.795 253.411 243.61 253.411H241.417C241.233 253.411 241.084 253.561 241.084 253.745V254.796C241.084 254.981 241.233 255.13 241.417 255.13Z" fill="#3F3D56"/>
<path d="M235.696 255.13H237.89C238.074 255.13 238.223 254.981 238.223 254.796V253.745C238.223 253.561 238.074 253.411 237.89 253.411H235.696C235.512 253.411 235.363 253.561 235.363 253.745V254.796C235.363 254.981 235.512 255.13 235.696 255.13Z" fill="#3F3D56"/>
<path d="M229.976 255.13H232.169C232.353 255.13 232.503 254.981 232.503 254.796V253.745C232.503 253.561 232.353 253.411 232.169 253.411H229.976C229.792 253.411 229.642 253.561 229.642 253.745V254.796C229.642 254.981 229.792 255.13 229.976 255.13Z" fill="#3F3D56"/>
<path d="M224.255 255.13H226.449C226.633 255.13 226.782 254.981 226.782 254.796V253.745C226.782 253.561 226.633 253.411 226.449 253.411H224.255C224.071 253.411 223.922 253.561 223.922 253.745V254.796C223.922 254.981 224.071 255.13 224.255 255.13Z" fill="#3F3D56"/>
<path d="M218.535 255.13H220.728C220.912 255.13 221.062 254.981 221.062 254.796V253.745C221.062 253.561 220.912 253.411 220.728 253.411H218.535C218.35 253.411 218.201 253.561 218.201 253.745V254.796C218.201 254.981 218.35 255.13 218.535 255.13Z" fill="#3F3D56"/>
<path d="M212.814 255.13H215.008C215.192 255.13 215.341 254.981 215.341 254.796V253.745C215.341 253.561 215.192 253.411 215.008 253.411H212.814C212.63 253.411 212.481 253.561 212.481 253.745V254.796C212.481 254.981 212.63 255.13 212.814 255.13Z" fill="#3F3D56"/>
<path d="M207.094 255.13H209.287C209.471 255.13 209.62 254.981 209.62 254.796V253.745C209.62 253.561 209.471 253.411 209.287 253.411H207.094C206.909 253.411 206.76 253.561 206.76 253.745V254.796C206.76 254.981 206.909 255.13 207.094 255.13Z" fill="#3F3D56"/>
<path d="M201.373 255.13H203.566C203.751 255.13 203.9 254.981 203.9 254.796V253.745C203.9 253.561 203.751 253.411 203.566 253.411H201.373C201.189 253.411 201.04 253.561 201.04 253.745V254.796C201.04 254.981 201.189 255.13 201.373 255.13Z" fill="#3F3D56"/>
<path d="M195.652 255.13H197.846C198.03 255.13 198.179 254.981 198.179 254.796V253.745C198.179 253.561 198.03 253.411 197.846 253.411H195.652C195.468 253.411 195.319 253.561 195.319 253.745V254.796C195.319 254.981 195.468 255.13 195.652 255.13Z" fill="#3F3D56"/>
<path d="M189.932 255.13H192.125C192.309 255.13 192.459 254.981 192.459 254.796V253.745C192.459 253.561 192.309 253.411 192.125 253.411H189.932C189.748 253.411 189.598 253.561 189.598 253.745V254.796C189.598 254.981 189.748 255.13 189.932 255.13Z" fill="#3F3D56"/>
<path d="M184.211 255.13H186.405C186.589 255.13 186.738 254.981 186.738 254.796V253.745C186.738 253.561 186.589 253.411 186.405 253.411H184.211C184.027 253.411 183.878 253.561 183.878 253.745V254.796C183.878 254.981 184.027 255.13 184.211 255.13Z" fill="#3F3D56"/>
<path d="M178.491 255.13H180.684C180.868 255.13 181.018 254.981 181.018 254.796V253.745C181.018 253.561 180.868 253.411 180.684 253.411H178.491C178.307 253.411 178.157 253.561 178.157 253.745V254.796C178.157 254.981 178.307 255.13 178.491 255.13Z" fill="#3F3D56"/>
<path d="M216.819 258.568H239.034C239.218 258.568 239.367 258.418 239.367 258.234V257.183C239.367 256.998 239.218 256.849 239.034 256.849H216.819C216.634 256.849 216.485 256.998 216.485 257.183V258.234C216.485 258.418 216.634 258.568 216.819 258.568Z" fill="#3F3D56"/>
</g>
<defs>
<clipPath id="clip0_18_1069">
<rect width="569" height="433" fill="white"/>
</clipPath>
</defs>
</svg>
