<svg width="665" height="421" viewBox="0 0 665 421" fill="none" xmlns="http://www.w3.org/2000/svg">
<g clip-path="url(#clip0_88_191)">
<path d="M585.58 385.019L586.227 370.431C592.979 366.816 600.509 364.906 608.165 364.868C597.629 373.497 598.945 390.132 591.802 401.737C587.233 409.033 579.599 413.853 571.056 414.833L562.239 420.241C559.791 406.567 563.442 392.504 572.231 381.758C574.697 378.804 577.524 376.172 580.647 373.925C582.758 379.503 585.58 385.019 585.58 385.019Z" fill="#F2F2F2"/>
<path d="M139.863 369.033L118.585 362.58C115.795 351.222 115.814 339.354 118.641 328.006C127.403 346.855 152.439 351.171 166.868 366.117C175.912 375.63 180.146 388.747 178.375 401.763L183.032 416.854C161.937 415.328 142.567 404.626 130.025 387.567C126.595 382.803 123.777 377.626 121.638 372.157C130.663 371.132 139.863 369.033 139.863 369.033Z" fill="#F2F2F2"/>
<path d="M511.853 417.855C511.85 418.297 511.674 418.72 511.364 419.034C511.054 419.344 510.633 419.517 510.196 419.516H503.534C502.622 419.519 501.88 418.781 501.877 417.867V216.045C501.877 211.596 500.386 207.986 498.555 207.977H83.8759C82.0366 207.986 80.5535 211.596 80.5452 216.045V416.619C80.5424 417.473 79.8944 418.187 79.0455 418.27C77.7033 418.403 76.361 418.519 75.0271 418.627C74.9939 418.627 74.9608 418.636 74.9276 418.636C74.1985 418.702 73.4694 418.752 72.7403 418.81H72.732C72.3509 418.121 71.9863 417.416 71.6134 416.71C71.4939 416.47 71.4315 416.206 71.4312 415.938V205.579C71.4312 204.35 71.4809 203.114 71.5637 201.893C71.6819 200.218 71.8894 198.55 72.1851 196.897C73.5854 189.186 76.7504 183.965 80.3463 183.948H502.076C502.601 183.952 503.119 184.062 503.601 184.272C504.307 184.585 504.946 185.034 505.481 185.592C506.208 186.349 506.829 187.2 507.329 188.123C509.102 191.253 510.37 195.917 510.817 201.346C510.817 201.395 510.825 201.445 510.825 201.495C510.941 202.84 510.999 204.209 510.991 205.579L511.107 223.366L511.182 233.974L511.406 267.257L511.488 279.077L511.853 417.855Z" fill="#E6E6E6"/>
<path d="M357.951 122.416H315.691C314.446 122.418 313.438 123.43 313.439 124.677V191.555H360.208V124.677C360.209 123.429 359.2 122.417 357.954 122.416H357.951ZM336.963 160.415C334.212 160.402 331.986 158.172 331.973 155.416V147.702C331.973 144.942 334.207 142.703 336.963 142.703C339.719 142.703 341.953 144.942 341.953 147.702V155.416C341.941 158.172 339.714 160.402 336.963 160.415Z" fill="#CCCCCC"/>
<path d="M313.294 189.416V195.868C313.296 196.564 313.859 197.128 314.554 197.13H359.094C359.788 197.126 360.35 196.563 360.354 195.868V189.416H313.294Z" fill="#3F3D56"/>
<path d="M427.931 18.0461H247.284C244.052 18.0513 241.434 20.6742 241.429 23.9114V146.029C241.432 149.267 244.052 151.891 247.284 151.894H427.931C431.163 151.891 433.783 149.267 433.786 146.029V23.9114C433.78 20.6742 431.162 18.0513 427.931 18.0461Z" fill="#E6E6E6"/>
<path d="M426.423 22.2825H248.793C247.063 22.2863 245.662 23.6924 245.662 25.4258V144.517C245.665 146.248 247.065 147.651 248.793 147.653H426.423C428.151 147.651 429.551 146.248 429.554 144.517V25.4258C429.554 23.6924 428.153 22.2863 426.423 22.2825Z" fill="white"/>
<path d="M391.824 199.375H286.144C285.07 199.375 284.2 198.503 284.2 197.427C284.2 197.293 284.213 197.158 284.241 197.026L285.881 189.224C286.073 188.325 286.865 187.681 287.783 187.678H390.184C391.102 187.681 391.894 188.325 392.086 189.224L393.726 197.026C393.947 198.079 393.275 199.112 392.224 199.333C392.092 199.361 391.958 199.375 391.824 199.375Z" fill="#CCCCCC"/>
<path d="M291.384 189.083H288.938C288.715 189.083 288.533 189.264 288.533 189.488V190.634C288.533 190.858 288.715 191.039 288.938 191.039H291.384C291.607 191.039 291.788 190.858 291.788 190.634V189.488C291.788 189.264 291.607 189.083 291.384 189.083Z" fill="#E6E6E6"/>
<path d="M297.894 189.083H295.448C295.224 189.083 295.043 189.264 295.043 189.488V190.634C295.043 190.858 295.224 191.039 295.448 191.039H297.894C298.117 191.039 298.298 190.858 298.298 190.634V189.488C298.298 189.264 298.117 189.083 297.894 189.083Z" fill="#E6E6E6"/>
<path d="M304.403 189.083H301.957C301.734 189.083 301.553 189.264 301.553 189.488V190.634C301.553 190.858 301.734 191.039 301.957 191.039H304.403C304.627 191.039 304.808 190.858 304.808 190.634V189.488C304.808 189.264 304.627 189.083 304.403 189.083Z" fill="#E6E6E6"/>
<path d="M310.913 189.083H308.467C308.244 189.083 308.062 189.264 308.062 189.488V190.634C308.062 190.858 308.244 191.039 308.467 191.039H310.913C311.136 191.039 311.317 190.858 311.317 190.634V189.488C311.317 189.264 311.136 189.083 310.913 189.083Z" fill="#E6E6E6"/>
<path d="M317.423 189.083H314.977C314.753 189.083 314.572 189.264 314.572 189.488V190.634C314.572 190.858 314.753 191.039 314.977 191.039H317.423C317.646 191.039 317.827 190.858 317.827 190.634V189.488C317.827 189.264 317.646 189.083 317.423 189.083Z" fill="#E6E6E6"/>
<path d="M323.932 189.083H321.486C321.263 189.083 321.082 189.264 321.082 189.488V190.634C321.082 190.858 321.263 191.039 321.486 191.039H323.932C324.156 191.039 324.337 190.858 324.337 190.634V189.488C324.337 189.264 324.156 189.083 323.932 189.083Z" fill="#E6E6E6"/>
<path d="M330.442 189.083H327.996C327.773 189.083 327.592 189.264 327.592 189.488V190.634C327.592 190.858 327.773 191.039 327.996 191.039H330.442C330.665 191.039 330.846 190.858 330.846 190.634V189.488C330.846 189.264 330.665 189.083 330.442 189.083Z" fill="#E6E6E6"/>
<path d="M336.952 189.083H334.506C334.282 189.083 334.101 189.264 334.101 189.488V190.634C334.101 190.858 334.282 191.039 334.506 191.039H336.952C337.175 191.039 337.356 190.858 337.356 190.634V189.488C337.356 189.264 337.175 189.083 336.952 189.083Z" fill="#E6E6E6"/>
<path d="M343.461 189.083H341.015C340.792 189.083 340.611 189.264 340.611 189.488V190.634C340.611 190.858 340.792 191.039 341.015 191.039H343.461C343.685 191.039 343.866 190.858 343.866 190.634V189.488C343.866 189.264 343.685 189.083 343.461 189.083Z" fill="#E6E6E6"/>
<path d="M349.971 189.083H347.525C347.302 189.083 347.121 189.264 347.121 189.488V190.634C347.121 190.858 347.302 191.039 347.525 191.039H349.971C350.194 191.039 350.376 190.858 350.376 190.634V189.488C350.376 189.264 350.194 189.083 349.971 189.083Z" fill="#E6E6E6"/>
<path d="M356.481 189.083H354.035C353.811 189.083 353.63 189.264 353.63 189.488V190.634C353.63 190.858 353.811 191.039 354.035 191.039H356.481C356.704 191.039 356.885 190.858 356.885 190.634V189.488C356.885 189.264 356.704 189.083 356.481 189.083Z" fill="#E6E6E6"/>
<path d="M362.99 189.083H360.545C360.321 189.083 360.14 189.264 360.14 189.488V190.634C360.14 190.858 360.321 191.039 360.545 191.039H362.99C363.214 191.039 363.395 190.858 363.395 190.634V189.488C363.395 189.264 363.214 189.083 362.99 189.083Z" fill="#E6E6E6"/>
<path d="M369.5 189.083H367.054C366.831 189.083 366.65 189.264 366.65 189.488V190.634C366.65 190.858 366.831 191.039 367.054 191.039H369.5C369.724 191.039 369.905 190.858 369.905 190.634V189.488C369.905 189.264 369.724 189.083 369.5 189.083Z" fill="#E6E6E6"/>
<path d="M376.01 189.083H373.564C373.341 189.083 373.159 189.264 373.159 189.488V190.634C373.159 190.858 373.341 191.039 373.564 191.039H376.01C376.233 191.039 376.414 190.858 376.414 190.634V189.488C376.414 189.264 376.233 189.083 376.01 189.083Z" fill="#E6E6E6"/>
<path d="M382.519 189.083H380.074C379.85 189.083 379.669 189.264 379.669 189.488V190.634C379.669 190.858 379.85 191.039 380.074 191.039H382.519C382.743 191.039 382.924 190.858 382.924 190.634V189.488C382.924 189.264 382.743 189.083 382.519 189.083Z" fill="#E6E6E6"/>
<path d="M389.029 189.083H386.583C386.36 189.083 386.179 189.264 386.179 189.488V190.634C386.179 190.858 386.36 191.039 386.583 191.039H389.029C389.253 191.039 389.434 190.858 389.434 190.634V189.488C389.434 189.264 389.253 189.083 389.029 189.083Z" fill="#E6E6E6"/>
<path d="M291.307 192.344H288.861C288.638 192.344 288.457 192.525 288.457 192.749V193.895C288.457 194.119 288.638 194.3 288.861 194.3H291.307C291.53 194.3 291.711 194.119 291.711 193.895V192.749C291.711 192.525 291.53 192.344 291.307 192.344Z" fill="#E6E6E6"/>
<path d="M297.817 192.344H295.371C295.147 192.344 294.966 192.525 294.966 192.749V193.895C294.966 194.119 295.147 194.3 295.371 194.3H297.817C298.04 194.3 298.221 194.119 298.221 193.895V192.749C298.221 192.525 298.04 192.344 297.817 192.344Z" fill="#E6E6E6"/>
<path d="M304.326 192.344H301.88C301.657 192.344 301.476 192.525 301.476 192.749V193.895C301.476 194.119 301.657 194.3 301.88 194.3H304.326C304.55 194.3 304.731 194.119 304.731 193.895V192.749C304.731 192.525 304.55 192.344 304.326 192.344Z" fill="#E6E6E6"/>
<path d="M310.836 192.344H308.39C308.167 192.344 307.986 192.525 307.986 192.749V193.895C307.986 194.119 308.167 194.3 308.39 194.3H310.836C311.059 194.3 311.24 194.119 311.24 193.895V192.749C311.24 192.525 311.059 192.344 310.836 192.344Z" fill="#E6E6E6"/>
<path d="M317.346 192.344H314.9C314.676 192.344 314.495 192.525 314.495 192.749V193.895C314.495 194.119 314.676 194.3 314.9 194.3H317.346C317.569 194.3 317.75 194.119 317.75 193.895V192.749C317.75 192.525 317.569 192.344 317.346 192.344Z" fill="#E6E6E6"/>
<path d="M323.855 192.344H321.41C321.186 192.344 321.005 192.525 321.005 192.749V193.895C321.005 194.119 321.186 194.3 321.41 194.3H323.855C324.079 194.3 324.26 194.119 324.26 193.895V192.749C324.26 192.525 324.079 192.344 323.855 192.344Z" fill="#E6E6E6"/>
<path d="M330.365 192.344H327.919C327.696 192.344 327.515 192.525 327.515 192.749V193.895C327.515 194.119 327.696 194.3 327.919 194.3H330.365C330.588 194.3 330.77 194.119 330.77 193.895V192.749C330.77 192.525 330.588 192.344 330.365 192.344Z" fill="#E6E6E6"/>
<path d="M336.875 192.344H334.429C334.205 192.344 334.024 192.525 334.024 192.749V193.895C334.024 194.119 334.205 194.3 334.429 194.3H336.875C337.098 194.3 337.279 194.119 337.279 193.895V192.749C337.279 192.525 337.098 192.344 336.875 192.344Z" fill="#E6E6E6"/>
<path d="M343.384 192.344H340.939C340.715 192.344 340.534 192.525 340.534 192.749V193.895C340.534 194.119 340.715 194.3 340.939 194.3H343.384C343.608 194.3 343.789 194.119 343.789 193.895V192.749C343.789 192.525 343.608 192.344 343.384 192.344Z" fill="#E6E6E6"/>
<path d="M349.894 192.344H347.448C347.225 192.344 347.044 192.525 347.044 192.749V193.895C347.044 194.119 347.225 194.3 347.448 194.3H349.894C350.117 194.3 350.299 194.119 350.299 193.895V192.749C350.299 192.525 350.117 192.344 349.894 192.344Z" fill="#E6E6E6"/>
<path d="M356.404 192.344H353.958C353.735 192.344 353.553 192.525 353.553 192.749V193.895C353.553 194.119 353.735 194.3 353.958 194.3H356.404C356.627 194.3 356.808 194.119 356.808 193.895V192.749C356.808 192.525 356.627 192.344 356.404 192.344Z" fill="#E6E6E6"/>
<path d="M362.913 192.344H360.468C360.244 192.344 360.063 192.525 360.063 192.749V193.895C360.063 194.119 360.244 194.3 360.468 194.3H362.913C363.137 194.3 363.318 194.119 363.318 193.895V192.749C363.318 192.525 363.137 192.344 362.913 192.344Z" fill="#E6E6E6"/>
<path d="M369.423 192.344H366.977C366.754 192.344 366.573 192.525 366.573 192.749V193.895C366.573 194.119 366.754 194.3 366.977 194.3H369.423C369.646 194.3 369.828 194.119 369.828 193.895V192.749C369.828 192.525 369.646 192.344 369.423 192.344Z" fill="#E6E6E6"/>
<path d="M375.933 192.344H373.487C373.264 192.344 373.083 192.525 373.083 192.749V193.895C373.083 194.119 373.264 194.3 373.487 194.3H375.933C376.156 194.3 376.337 194.119 376.337 193.895V192.749C376.337 192.525 376.156 192.344 375.933 192.344Z" fill="#E6E6E6"/>
<path d="M382.443 192.344H379.997C379.773 192.344 379.592 192.525 379.592 192.749V193.895C379.592 194.119 379.773 194.3 379.997 194.3H382.443C382.666 194.3 382.847 194.119 382.847 193.895V192.749C382.847 192.525 382.666 192.344 382.443 192.344Z" fill="#E6E6E6"/>
<path d="M388.952 192.344H386.506C386.283 192.344 386.102 192.525 386.102 192.749V193.895C386.102 194.119 386.283 194.3 386.506 194.3H388.952C389.176 194.3 389.357 194.119 389.357 193.895V192.749C389.357 192.525 389.176 192.344 388.952 192.344Z" fill="#E6E6E6"/>
<path d="M345.337 196.256H320.108C319.884 196.256 319.703 196.438 319.703 196.662V197.807C319.703 198.031 319.884 198.213 320.108 198.213H345.337C345.561 198.213 345.742 198.031 345.742 197.807V196.662C345.742 196.438 345.561 196.256 345.337 196.256Z" fill="#E6E6E6"/>
<path d="M417.494 38.6906H251.286C250.921 38.6826 250.632 38.3796 250.64 38.0139C250.648 37.6595 250.932 37.3741 251.286 37.3663H417.494C417.859 37.3744 418.148 37.6773 418.14 38.043C418.132 38.3974 417.847 38.6828 417.494 38.6906Z" fill="#CACACA"/>
<path d="M262.6 33.9856C264.739 33.9856 266.474 32.2096 266.474 30.0187C266.474 27.8279 264.739 26.0518 262.6 26.0518C260.461 26.0518 258.727 27.8279 258.727 30.0187C258.727 32.2096 260.461 33.9856 262.6 33.9856Z" fill="#CCCCCC"/>
<path d="M275.982 33.9856C278.121 33.9856 279.855 32.2096 279.855 30.0187C279.855 27.8279 278.121 26.0518 275.982 26.0518C273.842 26.0518 272.108 27.8279 272.108 30.0187C272.108 32.2096 273.842 33.9856 275.982 33.9856Z" fill="#CCCCCC"/>
<path d="M289.363 33.9856C291.502 33.9856 293.236 32.2096 293.236 30.0187C293.236 27.8279 291.502 26.0518 289.363 26.0518C287.224 26.0518 285.489 27.8279 285.489 30.0187C285.489 32.2096 287.224 33.9856 289.363 33.9856Z" fill="#CCCCCC"/>
<path d="M334.22 48.7303L333.683 47.1591L402.334 11.4252L402.87 12.9964L334.22 48.7303Z" fill="#3F3D56"/>
<path d="M541.356 114.917L540.819 113.346L582.129 77.7933L582.665 79.3637L541.356 114.917Z" fill="#3F3D56"/>
<path d="M461.99 123.194L393.338 87.4597L393.875 85.8885L462.526 121.622L461.99 123.194Z" fill="#3F3D56"/>
<path d="M497.132 98.3279L456.886 32.1374L458.158 31.0725L498.403 97.263L497.132 98.3279Z" fill="#3F3D56"/>
<path d="M528.541 12.0801L489.345 11.8991V10.2391L528.541 10.42V12.0801Z" fill="#3F3D56"/>
<path d="M599.545 22.3768H555.632C549.683 22.3768 544.861 17.5459 544.861 11.5866C544.861 5.62732 549.683 0.796371 555.632 0.796371H599.545C605.494 0.796371 610.316 5.62732 610.316 11.5866C610.316 17.5459 605.494 22.3768 599.545 22.3768Z" fill="#008CCF"/>
<path d="M654.229 85.4581H610.316C604.367 85.4581 599.545 80.6271 599.545 74.6679C599.545 68.7086 604.367 63.8777 610.316 63.8777H654.229C660.178 63.8777 665 68.7086 665 74.6679C665 80.6271 660.178 85.4581 654.229 85.4581Z" fill="#008CCF"/>
<path d="M583.225 129.942L544.029 129.761V128.101L583.225 128.282V129.942Z" fill="#3F3D56"/>
<path d="M654.229 140.239H610.316C604.367 140.239 599.545 135.408 599.545 129.449C599.545 123.49 604.367 118.659 610.316 118.659H654.229C660.178 118.659 665 123.49 665 129.449C665 135.408 660.178 140.239 654.229 140.239Z" fill="#008CCF"/>
<path d="M525.804 132.803H481.891C475.943 132.803 471.12 127.972 471.12 122.012C471.12 116.053 475.943 111.222 481.891 111.222H525.804C531.753 111.222 536.575 116.053 536.575 122.012C536.575 127.972 531.753 132.803 525.804 132.803Z" fill="#008CCF"/>
<path d="M466.149 21.5804H422.236C416.287 21.5804 411.465 16.7495 411.465 10.7902C411.465 4.83095 416.287 0 422.236 0H466.149C472.098 0 476.92 4.83095 476.92 10.7902C476.92 16.7495 472.098 21.5804 466.149 21.5804Z" fill="#008CCF"/>
<path d="M256.255 206.824H206.542C202.881 206.824 199.914 209.797 199.914 213.464C199.914 217.131 202.881 220.104 206.542 220.104H224.77V271.565H238.027V220.104H256.255C259.916 220.104 262.883 217.131 262.883 213.464C262.883 209.797 259.916 206.824 256.255 206.824Z" fill="#3F3D56"/>
<path d="M289.066 300.065H156.099C129.454 299.968 106.911 280.31 103.141 253.887L98.4343 236.543C88.6923 200.603 73.8535 166.249 54.3711 134.531C45.4665 120.044 40.8833 106.021 51.2932 92.5198C51.3819 92.4048 51.469 92.2914 51.5547 92.1797C59.9041 81.293 101.462 78.9363 115.009 78.4779C115.544 78.4597 116.082 78.4506 116.621 78.4508H199.326C199.865 78.4508 200.402 78.4599 200.937 78.4779C215.816 78.9125 229.256 87.4942 235.932 100.823C243.054 114.431 242.146 130.857 233.565 143.593C204.514 187.311 195.619 214.723 204.725 232.476C213.534 249.647 240.535 258.426 289.7 260.103C302.912 260.554 308.975 270.86 309.018 280.245C309.059 289.387 303.229 299.481 290.332 300.039C289.913 300.056 289.491 300.065 289.066 300.065Z" fill="#3F3D56"/>
<path d="M178.687 418.343H228.4C232.06 418.343 235.028 415.37 235.028 411.702C235.028 408.035 232.06 405.062 228.4 405.062H210.172V293.01H196.915V405.062H178.687C175.026 405.062 172.059 408.035 172.059 411.702C172.059 415.37 175.026 418.343 178.687 418.343Z" fill="#3F3D56"/>
<path d="M223.682 373.169L232.246 377.829L254.916 346.428L242.276 339.55L223.682 373.169Z" fill="#A0616A"/>
<path d="M227.804 361.979L243.351 366.856L240.876 373.381L251.537 388.881C252.901 390.864 252.402 393.579 250.423 394.945C249.246 395.758 247.745 395.94 246.408 395.431L228.309 388.543L227.637 380.901L223.971 386.892L217.147 384.295L227.804 361.979Z" fill="#2F2E41"/>
<path d="M245.32 56.5039C246.087 61.7722 242.445 66.666 237.186 67.4345C236.625 67.5164 236.059 67.5486 235.492 67.5306L202.474 137.912L192.118 123.445L226.108 56.8935C226.63 51.5662 231.364 47.6716 236.682 48.1947C241.132 48.6325 244.703 52.0676 245.32 56.5039Z" fill="#A0616A"/>
<path d="M135.745 152.143C135.745 152.143 134.86 164.438 148.74 166.85C162.621 169.261 199.728 145.755 205.822 142.145C211.917 138.536 223.273 93.1241 223.273 93.1241L213.397 76.3894C201.203 91.8418 191.627 106.091 191.045 116.205L135.745 152.143Z" fill="#008CCF"/>
<path d="M151.769 194.496L154.767 207.399C154.767 207.399 154.796 219.297 156.9 221.491C158.989 223.675 204.919 219.29 204.919 219.29C204.919 219.29 200.049 200.117 200.114 185.61L151.769 194.496Z" fill="#A0616A"/>
<path d="M248.798 359.547L232.227 350.417C231.912 328.816 244.881 299.584 260.265 268.965C225.861 274.892 193.404 276.791 165.331 269.621C155.741 267.084 149.961 257.303 152.353 247.661C152.462 247.206 152.589 246.755 152.732 246.31C156.092 236.041 148.558 229.603 155.488 218.309C173.713 212.073 191.026 210.312 206.857 215.818L216.777 237.79L265.945 231.416C275.887 230.226 284.911 237.334 286.099 247.294C286.105 247.34 286.11 247.385 286.115 247.43C286.181 247.965 286.224 248.502 286.244 249.041C276.303 295.732 265.155 337.744 248.798 359.547Z" fill="#2F2E41"/>
<path d="M145.095 112.803L164.036 111.682C165.674 111.586 167.192 112.54 167.818 114.059L173.17 127.058L195.417 145.478C195.417 145.478 204.225 156.707 204.246 171.208C204.266 185.709 207.371 219.274 207.371 219.274C207.371 219.274 194.516 201.148 186.581 205.969C185.232 206.789 184.757 208.466 183.343 209.314C182.638 209.737 181.008 209.326 180.296 209.749C169.362 216.251 157.96 222.603 156.895 221.489C154.803 219.303 152.265 208.128 152.265 208.128L134.927 144.311C133.024 137.512 134.254 130.217 138.282 124.422C139.493 122.713 140.762 121.442 141.942 121.232C144.59 120.667 143.181 114.722 145.095 112.803Z" fill="#008CCF"/>
<path d="M306.221 400.201L314.217 394.632L296.104 360.399L284.304 368.618L306.221 400.201Z" fill="#A0616A"/>
<path d="M307.43 377.231L294.899 388.452C274.975 366.211 259.912 335.019 247.147 299.596C213.703 289.784 188.481 273.958 166.462 255.168C158.993 248.836 153.393 240.702 159.764 232.989C160.061 232.629 160.372 232.28 160.697 231.943C168.218 224.199 187.293 225.675 198.465 218.58L223.422 245.304L221.853 252.468L268.729 268.375C278.166 271.688 283.135 282.038 279.828 291.491C279.812 291.537 279.795 291.584 279.779 291.63C279.603 292.139 279.406 292.64 279.187 293.133L307.43 377.231Z" fill="#2F2E41"/>
<path d="M301.56 397.943L314.359 387.846L318.336 393.578L337.125 393.52C339.529 393.513 341.484 395.458 341.491 397.866C341.496 399.299 340.797 400.642 339.623 401.46L323.726 412.531L317.052 408.77L319.916 415.184L313.922 419.358L301.56 397.943Z" fill="#2F2E41"/>
<path d="M173.065 273.634C168.173 271.554 165.89 265.895 167.967 260.994C168.188 260.471 168.455 259.969 168.765 259.494L125.884 194.668L143.604 193.319L182.713 256.986C186.986 260.201 187.848 266.277 184.64 270.557C181.955 274.139 177.17 275.411 173.065 273.634Z" fill="#A0616A"/>
<path d="M148.41 130.156C148.41 130.156 138.382 123.011 129.114 133.64C119.847 144.269 120.621 188.244 120.533 195.336C120.506 197.556 123.707 202.348 128.117 207.883C130.097 210.367 132.321 213.002 134.605 215.621C135.927 217.137 134.788 220.291 136.116 221.764C137.436 223.229 141.223 223.013 142.479 224.373C148.439 230.826 153.282 235.739 153.282 235.739L172.687 235.978C172.906 221.527 163.027 208.628 150.336 196.162L148.41 130.156Z" fill="#008CCF"/>
<path d="M128.851 67.2378C127.013 68.5662 125.081 69.9347 122.839 70.2638C120.597 70.593 117.973 69.5074 117.352 67.3244C116.594 64.6553 119 62.225 121.162 60.4904L128.019 54.9898C129.275 53.8742 130.692 52.9561 132.223 52.2668C133.781 51.5802 135.566 51.64 137.074 52.4293C138.572 53.443 139.439 55.1626 139.363 56.9724C139.265 58.7563 138.678 60.4785 137.665 61.949C135.093 65.9652 130.996 68.7554 126.321 69.6737" fill="#2F2E41"/>
<path d="M180.857 210.144H131.144C127.484 210.144 124.516 213.117 124.516 216.784C124.516 220.451 127.484 223.424 131.144 223.424H149.372V274.885H162.629V223.424H180.857C184.518 223.424 187.486 220.451 187.486 216.784C187.486 213.117 184.518 210.144 180.857 210.144Z" fill="#3F3D56"/>
<path d="M131.896 53.3066C132.096 48.328 126.801 44.3859 121.838 44.6975C116.876 45.0091 112.61 48.506 109.795 52.614C106.982 56.7185 105.292 61.4728 103.075 65.9294C100.859 70.3859 97.9073 74.7494 93.503 77.0588C89.0995 79.3648 82.9698 78.9534 79.9261 75.0162C78.0067 77.9321 77.5893 81.5898 78.8021 84.8646C80.0482 88.097 82.3719 90.7981 85.3793 92.5098C86.5764 93.2209 87.855 93.7842 89.1873 94.1872C89.7367 92.7018 90.5096 91.3093 91.4793 90.058C91.0413 91.5393 90.8741 93.0878 90.9857 94.6287C93.0392 95.023 95.1517 94.9896 97.1918 94.5307C101.254 93.6205 104.65 90.8459 106.357 87.0429C108.218 82.6291 107.27 77.5966 107.668 72.8221C108.063 68.0466 110.935 62.5952 115.718 62.5173C119.361 62.4573 118.879 62.7581 121.187 65.5815" fill="#2F2E41"/>
<path d="M164.973 79.4674C164.973 91.3859 155.328 101.048 143.431 101.048C131.533 101.048 120.231 87.2359 120.231 75.3173C120.231 63.3988 131.533 57.887 143.431 57.887C155.328 57.887 164.973 67.5488 164.973 79.4674Z" fill="#2F2E41"/>
<path d="M154.046 105.329C165.166 103.05 172.336 92.171 170.061 81.031C167.786 69.891 156.926 62.7082 145.806 64.9876C134.686 67.2671 127.516 78.1457 129.791 89.2856C132.067 100.426 142.926 107.608 154.046 105.329Z" fill="#A0616A"/>
<path d="M175.744 81.9575C169.66 83.6216 163.517 85.3661 161.145 81.9575C160.684 79.6973 159.81 77.5419 158.568 75.5995C158.334 77.7748 157.825 79.9113 157.052 81.9575C149.365 83.6312 142.182 84.0312 135.974 81.9575C135.12 83.504 134.625 85.223 134.524 86.9874C134.217 86.7942 133.895 86.6249 133.563 86.4811C133.163 86.255 132.686 86.2126 132.254 86.3648C131.954 86.5459 131.755 86.8553 131.715 87.2032C131.674 87.5494 131.691 87.9 131.765 88.2407C131.852 89.4279 132.206 90.58 132.8 91.6106C133.276 92.3283 134.03 92.8131 134.88 92.9469C135.742 97.8025 142.602 104.368 142.602 104.368C121.888 105.198 121.888 91.1209 121.888 77.8074L124.374 72.8273H132.66V62.0371H155.859C166.84 62.0399 175.741 70.9569 175.744 81.9575Z" fill="#2F2E41"/>
<path d="M364.516 420.745L0.991683 421C0.44684 421.003 0.00285562 420.563 1.37088e-05 420.017C-0.0028282 419.471 0.436549 419.026 0.981393 419.023H0.991683L364.516 418.768C365.061 418.77 365.501 419.214 365.499 419.76C365.498 420.303 365.058 420.743 364.516 420.745Z" fill="#CACACA"/>
<path d="M607.28 420.745L419.407 421C418.862 421.003 418.418 420.563 418.415 420.017C418.413 419.471 418.852 419.026 419.397 419.023H419.407L607.28 418.768C607.825 418.767 608.268 419.208 608.27 419.753C608.271 420.299 607.831 420.743 607.286 420.745H607.28Z" fill="#CACACA"/>
<path d="M372.824 122.842H301.608C295.423 122.836 290.41 117.814 290.403 111.618V64.3458C290.41 58.1494 295.423 53.128 301.608 53.1211H372.824C379.01 53.128 384.022 58.1494 384.029 64.3458V111.618C384.022 117.814 379.01 122.836 372.824 122.842ZM301.608 54.7811C296.338 54.7871 292.066 59.0659 292.06 64.3458V111.618C292.066 116.898 296.338 121.176 301.608 121.182H372.824C378.095 121.176 382.366 116.898 382.372 111.618V64.3458C382.366 59.0658 378.095 54.7871 372.824 54.7811L301.608 54.7811Z" fill="#E6E6E6"/>
<path d="M322.709 68.0614H303.66V69.7214H322.709V68.0614Z" fill="#E6E6E6"/>
<path d="M345.916 74.7015H303.66V76.3615H345.916V74.7015Z" fill="#E6E6E6"/>
<path d="M345.916 80.5116H303.66V82.1717H345.916V80.5116Z" fill="#E6E6E6"/>
<path d="M357.515 86.3217H303.66V87.9818H357.515V86.3217Z" fill="#E6E6E6"/>
<path d="M331.831 92.1319H303.66V93.7919H331.831V92.1319Z" fill="#E6E6E6"/>
<path d="M355.03 97.942H303.66V99.602H355.03V97.942Z" fill="#E6E6E6"/>
<path d="M312.774 103.752H303.66V105.412H312.774V103.752Z" fill="#E6E6E6"/>
<path d="M303.04 32.3361C302.959 32.3361 302.879 32.3049 302.818 32.2427L301.05 30.4323C300.933 30.3117 300.933 30.1189 301.05 29.9983L302.818 28.188C302.938 28.0656 303.135 28.0636 303.256 28.1832C303.379 28.3031 303.381 28.4996 303.261 28.6221L301.705 30.2153L303.261 31.8087C303.381 31.9311 303.379 32.1277 303.256 32.2476C303.196 32.3067 303.118 32.3361 303.04 32.3361Z" fill="#CCCCCC"/>
<path d="M306.01 32.3361C305.932 32.3361 305.854 32.3067 305.794 32.2476C305.671 32.1277 305.669 31.9313 305.789 31.8087L307.345 30.2153L305.789 28.6221C305.669 28.4996 305.671 28.3031 305.794 28.1832C305.916 28.0631 306.112 28.0654 306.232 28.188L308 29.9983C308.117 30.1189 308.117 30.3117 308 30.4323L306.232 32.2427C306.171 32.3048 306.091 32.3361 306.01 32.3361Z" fill="#CCCCCC"/>
<path d="M398.495 27.8428H395.208C394.833 27.8428 394.53 28.147 394.53 28.5226V31.8187C394.53 32.1943 394.833 32.4984 395.208 32.4984H398.495C398.87 32.4984 399.177 32.1943 399.177 31.8187V28.5226C399.177 28.147 398.87 27.8428 398.495 27.8428Z" fill="#CCCCCC"/>
<path d="M390.44 27.8428H387.153C386.778 27.8428 386.474 28.147 386.474 28.5226V31.8187C386.474 32.1943 386.778 32.4984 387.153 32.4984H390.44C390.815 32.4984 391.122 32.1943 391.122 31.8187V28.5226C391.122 28.147 390.815 27.8428 390.44 27.8428Z" fill="#CCCCCC"/>
<path d="M406.086 27.998H402.799C402.424 27.998 402.12 28.3022 402.12 28.6777V31.9739C402.12 32.3494 402.424 32.6536 402.799 32.6536H406.086C406.461 32.6536 406.768 32.3494 406.768 31.9739V28.6777C406.768 28.3022 406.461 27.998 406.086 27.998Z" fill="#CCCCCC"/>
<path d="M356.539 29.2519H330.263C329.804 29.2519 329.435 29.6244 329.435 30.0806C329.435 30.5369 329.804 30.9093 330.263 30.9093H356.539C356.994 30.9093 357.366 30.5368 357.366 30.0806C357.366 29.6244 356.994 29.2519 356.539 29.2519Z" fill="#CCCCCC"/>
</g>
<defs>
<clipPath id="clip0_88_191">
<rect width="665" height="421" fill="white"/>
</clipPath>
</defs>
</svg>
