<svg width="649" height="472" viewBox="0 0 649 472" fill="none" xmlns="http://www.w3.org/2000/svg">
<g clip-path="url(#clip0_18_786)">
<path d="M270.959 83.2081C258.795 83.2081 248.935 73.3481 248.935 61.1852C248.935 49.0223 258.795 39.1624 270.959 39.1624C283.122 39.1624 292.982 49.0223 292.982 61.1852C292.982 73.3481 283.122 83.2081 270.959 83.2081Z" fill="#F2F2F2"/>
<path d="M100.113 410.052C67.3768 385.12 51.7413 343.222 61.5298 303.255C61.7731 302.262 62.0298 301.271 62.3 300.283C68.7894 276.558 84.8442 254.011 108.243 246.43C127.891 240.065 149.337 244.96 169.834 242.429C210.071 237.46 241.265 204.905 263.215 170.82C285.164 136.734 302.033 98.5808 331.199 70.4213C379.275 24.0052 457.698 14.0118 517.305 44.2252C576.912 74.4387 614.881 141.47 613.261 208.275C611.642 275.08 571.981 338.95 514.384 372.837C493.225 385.286 468.753 394.105 444.398 391.019C423.265 388.341 404.064 376.987 383.031 373.616C349.962 368.316 317.104 383.267 288.502 400.689C259.9 418.111 232.273 438.762 199.77 446.839C168.211 454.681 129.112 432.139 100.113 410.052Z" fill="#F2F2F2"/>
<path d="M147.146 45.6281C147.864 45.1497 148.59 44.6961 149.308 44.2342C170.051 30.9678 192.285 20.1904 215.55 12.1246L220.945 86.5383H255.143V1.26192C257.295 0.816524 259.465 0.395875 261.634 -3.05176e-05V86.5383H302.274C324.647 86.5383 346.103 77.6512 361.923 61.832C377.743 46.0129 386.63 24.5575 386.63 2.18579C388.808 2.65593 390.969 3.15899 393.13 3.69511V86.5383H426.231L431.37 15.5805C455.278 24.7493 477.975 36.8066 498.957 51.4842C499.32 51.7316 499.683 51.9873 500.037 52.2348C501.86 53.5132 503.658 54.8164 505.448 56.1361V340.025H407.895L409.619 316.147L419.104 185.045H228.08L237.565 316.147L239.289 340.025H142.816V48.4984C144.251 47.5252 145.695 46.5684 147.146 45.6281ZM393.13 163.393H420.671L425.761 93.0378H393.13V163.393ZM261.634 163.393H307.891V162C307.891 161.329 308.023 160.666 308.28 160.047C308.537 159.428 308.913 158.866 309.387 158.392C309.861 157.919 310.424 157.544 311.044 157.288C311.663 157.032 312.327 156.901 312.997 156.902H333.106C333.776 156.902 334.439 157.034 335.057 157.29C335.676 157.546 336.238 157.921 336.711 158.395C337.185 158.868 337.56 159.43 337.816 160.049C338.072 160.667 338.204 161.33 338.204 162V163.393H386.63V93.0378H261.634V163.393ZM255.143 163.393V93.0378H221.415L226.504 163.393H255.143Z" fill="#3F3D56"/>
<path d="M649 358.204C641.834 366.695 634.084 374.673 625.806 382.083L23.1945 382.907C14.916 375.498 7.16559 367.519 0 359.029L649 358.204Z" fill="#3F3D56"/>
<path d="M240.35 281.746V352.435C240.349 353.335 239.991 354.199 239.354 354.836C238.717 355.473 237.853 355.831 236.952 355.832H132.194C131.293 355.831 130.429 355.473 129.792 354.836C129.155 354.199 128.797 353.335 128.797 352.435V281.746C128.799 280.846 129.157 279.983 129.794 279.347C130.431 278.711 131.294 278.353 132.194 278.352H236.952C237.853 278.353 238.715 278.711 239.352 279.347C239.989 279.983 240.348 280.846 240.35 281.746Z" fill="#3F3D56"/>
<path d="M237.892 282.625V351.563C237.892 352.044 237.7 352.505 237.36 352.846C237.019 353.186 236.558 353.377 236.077 353.378H133.066C132.585 353.377 132.123 353.186 131.783 352.846C131.443 352.505 131.251 352.044 131.25 351.563V282.625C131.25 282.143 131.442 281.681 131.782 281.34C132.122 280.999 132.584 280.807 133.066 280.806H236.077C236.558 280.807 237.02 280.999 237.361 281.34C237.701 281.681 237.892 282.143 237.892 282.625Z" fill="#008CCF"/>
<path d="M242.541 366.221C242.349 366.461 242.105 366.655 241.827 366.788C241.55 366.921 241.246 366.989 240.938 366.988H128.766C128.46 366.987 128.157 366.919 127.88 366.786C127.603 366.654 127.359 366.462 127.166 366.224C126.973 365.986 126.835 365.707 126.763 365.409C126.691 365.111 126.686 364.801 126.749 364.5L128.49 356.23C128.562 355.893 128.718 355.579 128.942 355.317C129.166 355.055 129.453 354.853 129.775 354.73C130.009 354.639 130.257 354.592 130.508 354.592H239.204C239.454 354.592 239.703 354.639 239.936 354.73C240.258 354.853 240.545 355.055 240.769 355.317C240.994 355.579 241.149 355.893 241.221 356.23L242.962 364.5C243.024 364.8 243.019 365.111 242.946 365.408C242.873 365.706 242.735 365.983 242.541 366.221Z" fill="#2F2E41"/>
<path d="M134.356 358.155H131.707C131.485 358.155 131.304 357.974 131.304 357.752V356.484C131.304 356.262 131.485 356.082 131.707 356.082H134.356C134.579 356.082 134.759 356.262 134.759 356.484V357.752C134.759 357.974 134.579 358.155 134.356 358.155Z" fill="#3F3D56"/>
<path d="M141.266 358.155H138.617C138.394 358.155 138.214 357.974 138.214 357.752V356.484C138.214 356.262 138.394 356.082 138.617 356.082H141.266C141.488 356.082 141.669 356.262 141.669 356.484V357.752C141.669 357.974 141.488 358.155 141.266 358.155Z" fill="#3F3D56"/>
<path d="M148.176 358.155H145.526C145.304 358.155 145.124 357.974 145.124 357.752V356.484C145.124 356.262 145.304 356.082 145.526 356.082H148.176C148.398 356.082 148.578 356.262 148.578 356.484V357.752C148.578 357.974 148.398 358.155 148.176 358.155Z" fill="#3F3D56"/>
<path d="M155.085 358.155H152.436C152.214 358.155 152.033 357.974 152.033 357.752V356.484C152.033 356.262 152.214 356.082 152.436 356.082H155.085C155.308 356.082 155.488 356.262 155.488 356.484V357.752C155.488 357.974 155.308 358.155 155.085 358.155Z" fill="#3F3D56"/>
<path d="M161.995 358.155H159.346C159.123 358.155 158.943 357.974 158.943 357.752V356.484C158.943 356.262 159.123 356.082 159.346 356.082H161.995C162.217 356.082 162.398 356.262 162.398 356.484V357.752C162.398 357.974 162.217 358.155 161.995 358.155Z" fill="#3F3D56"/>
<path d="M168.905 358.155H166.255C166.033 358.155 165.853 357.974 165.853 357.752V356.484C165.853 356.262 166.033 356.082 166.255 356.082H168.905C169.127 356.082 169.307 356.262 169.307 356.484V357.752C169.307 357.974 169.127 358.155 168.905 358.155Z" fill="#3F3D56"/>
<path d="M175.814 358.155H173.165C172.942 358.155 172.762 357.974 172.762 357.752V356.484C172.762 356.262 172.942 356.082 173.165 356.082H175.814C176.037 356.082 176.217 356.262 176.217 356.484V357.752C176.217 357.974 176.037 358.155 175.814 358.155Z" fill="#3F3D56"/>
<path d="M182.724 358.155H180.075C179.852 358.155 179.672 357.974 179.672 357.752V356.484C179.672 356.262 179.852 356.082 180.075 356.082H182.724C182.946 356.082 183.127 356.262 183.127 356.484V357.752C183.127 357.974 182.946 358.155 182.724 358.155Z" fill="#3F3D56"/>
<path d="M189.634 358.155H186.984C186.762 358.155 186.582 357.974 186.582 357.752V356.484C186.582 356.262 186.762 356.082 186.984 356.082H189.634C189.856 356.082 190.036 356.262 190.036 356.484V357.752C190.036 357.974 189.856 358.155 189.634 358.155Z" fill="#3F3D56"/>
<path d="M196.543 358.155H193.894C193.672 358.155 193.491 357.974 193.491 357.752V356.484C193.491 356.262 193.672 356.082 193.894 356.082H196.543C196.766 356.082 196.946 356.262 196.946 356.484V357.752C196.946 357.974 196.766 358.155 196.543 358.155Z" fill="#3F3D56"/>
<path d="M203.453 358.155H200.804C200.581 358.155 200.401 357.974 200.401 357.752V356.484C200.401 356.262 200.581 356.082 200.804 356.082H203.453C203.675 356.082 203.856 356.262 203.856 356.484V357.752C203.856 357.974 203.675 358.155 203.453 358.155Z" fill="#3F3D56"/>
<path d="M210.363 358.155H207.713C207.491 358.155 207.311 357.974 207.311 357.752V356.484C207.311 356.262 207.491 356.082 207.713 356.082H210.363C210.585 356.082 210.765 356.262 210.765 356.484V357.752C210.765 357.974 210.585 358.155 210.363 358.155Z" fill="#3F3D56"/>
<path d="M217.272 358.155H214.623C214.401 358.155 214.22 357.974 214.22 357.752V356.484C214.22 356.262 214.401 356.082 214.623 356.082H217.272C217.495 356.082 217.675 356.262 217.675 356.484V357.752C217.675 357.974 217.495 358.155 217.272 358.155Z" fill="#3F3D56"/>
<path d="M224.182 358.155H221.533C221.31 358.155 221.13 357.974 221.13 357.752V356.484C221.13 356.262 221.31 356.082 221.533 356.082H224.182C224.404 356.082 224.585 356.262 224.585 356.484V357.752C224.585 357.974 224.404 358.155 224.182 358.155Z" fill="#3F3D56"/>
<path d="M231.092 358.155H228.442C228.22 358.155 228.04 357.974 228.04 357.752V356.484C228.04 356.262 228.22 356.082 228.442 356.082H231.092C231.314 356.082 231.494 356.262 231.494 356.484V357.752C231.494 357.974 231.314 358.155 231.092 358.155Z" fill="#3F3D56"/>
<path d="M238.001 358.155H235.352C235.129 358.155 234.949 357.974 234.949 357.752V356.484C234.949 356.262 235.129 356.082 235.352 356.082H238.001C238.224 356.082 238.404 356.262 238.404 356.484V357.752C238.404 357.974 238.224 358.155 238.001 358.155Z" fill="#3F3D56"/>
<path d="M134.275 361.609H131.625C131.403 361.609 131.223 361.429 131.223 361.207V359.939C131.223 359.717 131.403 359.536 131.625 359.536H134.275C134.497 359.536 134.678 359.717 134.678 359.939V361.207C134.678 361.429 134.497 361.609 134.275 361.609Z" fill="#3F3D56"/>
<path d="M141.184 361.609H138.535C138.313 361.609 138.132 361.429 138.132 361.207V359.939C138.132 359.717 138.313 359.536 138.535 359.536H141.184C141.407 359.536 141.587 359.717 141.587 359.939V361.207C141.587 361.429 141.407 361.609 141.184 361.609Z" fill="#3F3D56"/>
<path d="M148.094 361.609H145.445C145.222 361.609 145.042 361.429 145.042 361.207V359.939C145.042 359.717 145.222 359.536 145.445 359.536H148.094C148.317 359.536 148.497 359.717 148.497 359.939V361.207C148.497 361.429 148.317 361.609 148.094 361.609Z" fill="#3F3D56"/>
<path d="M155.004 361.609H152.354C152.132 361.609 151.952 361.429 151.952 361.207V359.939C151.952 359.717 152.132 359.536 152.354 359.536H155.004C155.226 359.536 155.406 359.717 155.406 359.939V361.207C155.406 361.429 155.226 361.609 155.004 361.609Z" fill="#3F3D56"/>
<path d="M161.913 361.609H159.264C159.042 361.609 158.861 361.429 158.861 361.207V359.939C158.861 359.717 159.042 359.536 159.264 359.536H161.913C162.136 359.536 162.316 359.717 162.316 359.939V361.207C162.316 361.429 162.136 361.609 161.913 361.609Z" fill="#3F3D56"/>
<path d="M168.823 361.609H166.174C165.951 361.609 165.771 361.429 165.771 361.207V359.939C165.771 359.717 165.951 359.536 166.174 359.536H168.823C169.046 359.536 169.226 359.717 169.226 359.939V361.207C169.226 361.429 169.046 361.609 168.823 361.609Z" fill="#3F3D56"/>
<path d="M175.733 361.609H173.083C172.861 361.609 172.681 361.429 172.681 361.207V359.939C172.681 359.717 172.861 359.536 173.083 359.536H175.733C175.955 359.536 176.135 359.717 176.135 359.939V361.207C176.135 361.429 175.955 361.609 175.733 361.609Z" fill="#3F3D56"/>
<path d="M182.642 361.609H179.993C179.771 361.609 179.59 361.429 179.59 361.207V359.939C179.59 359.717 179.771 359.536 179.993 359.536H182.642C182.865 359.536 183.045 359.717 183.045 359.939V361.207C183.045 361.429 182.865 361.609 182.642 361.609Z" fill="#3F3D56"/>
<path d="M189.552 361.609H186.903C186.68 361.609 186.5 361.429 186.5 361.207V359.939C186.5 359.717 186.68 359.536 186.903 359.536H189.552C189.775 359.536 189.955 359.717 189.955 359.939V361.207C189.955 361.429 189.775 361.609 189.552 361.609Z" fill="#3F3D56"/>
<path d="M196.462 361.609H193.812C193.59 361.609 193.41 361.429 193.41 361.207V359.939C193.41 359.717 193.59 359.536 193.812 359.536H196.462C196.684 359.536 196.864 359.717 196.864 359.939V361.207C196.864 361.429 196.684 361.609 196.462 361.609Z" fill="#3F3D56"/>
<path d="M203.371 361.609H200.722C200.5 361.609 200.319 361.429 200.319 361.207V359.939C200.319 359.717 200.5 359.536 200.722 359.536H203.371C203.594 359.536 203.774 359.717 203.774 359.939V361.207C203.774 361.429 203.594 361.609 203.371 361.609Z" fill="#3F3D56"/>
<path d="M210.281 361.609H207.632C207.409 361.609 207.229 361.429 207.229 361.207V359.939C207.229 359.717 207.409 359.536 207.632 359.536H210.281C210.503 359.536 210.684 359.717 210.684 359.939V361.207C210.684 361.429 210.503 361.609 210.281 361.609Z" fill="#3F3D56"/>
<path d="M217.191 361.609H214.541C214.319 361.609 214.139 361.429 214.139 361.207V359.939C214.139 359.717 214.319 359.536 214.541 359.536H217.191C217.413 359.536 217.593 359.717 217.593 359.939V361.207C217.593 361.429 217.413 361.609 217.191 361.609Z" fill="#3F3D56"/>
<path d="M224.1 361.609H221.451C221.229 361.609 221.048 361.429 221.048 361.207V359.939C221.048 359.717 221.229 359.536 221.451 359.536H224.1C224.323 359.536 224.503 359.717 224.503 359.939V361.207C224.503 361.429 224.323 361.609 224.1 361.609Z" fill="#3F3D56"/>
<path d="M231.01 361.609H228.361C228.138 361.609 227.958 361.429 227.958 361.207V359.939C227.958 359.717 228.138 359.536 228.361 359.536H231.01C231.232 359.536 231.413 359.717 231.413 359.939V361.207C231.413 361.429 231.232 361.609 231.01 361.609Z" fill="#3F3D56"/>
<path d="M237.92 361.609H235.27C235.048 361.609 234.868 361.429 234.868 361.207V359.939C234.868 359.717 235.048 359.536 235.27 359.536H237.92C238.142 359.536 238.322 359.717 238.322 359.939V361.207C238.322 361.429 238.142 361.609 237.92 361.609Z" fill="#3F3D56"/>
<path d="M191.625 365.755H164.792C164.569 365.755 164.389 365.575 164.389 365.352V364.085C164.389 363.862 164.569 363.682 164.792 363.682H191.625C191.847 363.682 192.028 363.862 192.028 364.085V365.352C192.028 365.575 191.847 365.755 191.625 365.755Z" fill="#3F3D56"/>
<path d="M220.054 295.887H222.4C223.111 295.887 223.687 296.464 223.687 297.175C223.687 297.886 223.111 298.463 222.4 298.463H220.054C219.343 298.463 218.766 297.886 218.766 297.175C218.766 296.464 219.343 295.887 220.054 295.887Z" fill="white"/>
<path d="M193.228 295.887H195.573C196.284 295.887 196.861 296.464 196.861 297.175C196.861 297.886 196.284 298.463 195.573 298.463H193.228C192.517 298.463 191.94 297.886 191.94 297.175C191.94 296.464 192.517 295.887 193.228 295.887Z" fill="white"/>
<path d="M185.627 295.887H187.973C188.684 295.887 189.26 296.464 189.26 297.175C189.26 297.886 188.684 298.463 187.973 298.463H185.627C184.916 298.463 184.339 297.886 184.339 297.175C184.339 296.464 184.916 295.887 185.627 295.887Z" fill="white"/>
<path d="M200.525 295.673H215.103C215.814 295.673 216.39 296.249 216.39 296.96C216.39 297.671 215.814 298.248 215.103 298.248H200.525C199.813 298.248 199.237 297.671 199.237 296.96C199.237 296.249 199.813 295.673 200.525 295.673Z" fill="white"/>
<path d="M164.756 295.673H179.334C180.046 295.673 180.622 296.249 180.622 296.96C180.622 297.671 180.046 298.248 179.334 298.248H164.756C164.045 298.248 163.469 297.671 163.469 296.96C163.469 296.249 164.045 295.673 164.756 295.673Z" fill="white"/>
<path d="M212.9 301.7H215.246C215.957 301.7 216.534 302.276 216.534 302.987C216.534 303.698 215.957 304.275 215.246 304.275H212.9C212.189 304.275 211.613 303.698 211.613 302.987C211.613 302.276 212.189 301.7 212.9 301.7Z" fill="white"/>
<path d="M186.074 301.7H188.42C189.131 301.7 189.707 302.276 189.707 302.987C189.707 303.698 189.131 304.275 188.42 304.275H186.074C185.363 304.275 184.786 303.698 184.786 302.987C184.786 302.276 185.363 301.7 186.074 301.7Z" fill="white"/>
<path d="M178.473 301.7H180.819C181.53 301.7 182.107 302.276 182.107 302.987C182.107 303.698 181.53 304.275 180.819 304.275H178.473C177.762 304.275 177.186 303.698 177.186 302.987C177.186 302.276 177.762 301.7 178.473 301.7Z" fill="white"/>
<path d="M193.371 301.485H207.949C208.66 301.485 209.237 302.061 209.237 302.772C209.237 303.484 208.66 304.06 207.949 304.06H193.371C192.66 304.06 192.083 303.484 192.083 302.772C192.083 302.061 192.66 301.485 193.371 301.485Z" fill="white"/>
<path d="M157.603 301.485H172.181C172.892 301.485 173.468 302.061 173.468 302.772C173.468 303.484 172.892 304.06 172.181 304.06H157.603C156.891 304.06 156.315 303.484 156.315 302.772C156.315 302.061 156.891 301.485 157.603 301.485Z" fill="white"/>
<path d="M205.747 307.512H208.092C208.803 307.512 209.38 308.088 209.38 308.799C209.38 309.51 208.803 310.087 208.092 310.087H205.747C205.036 310.087 204.459 309.51 204.459 308.799C204.459 308.088 205.036 307.512 205.747 307.512Z" fill="white"/>
<path d="M178.921 307.512H181.266C181.977 307.512 182.554 308.088 182.554 308.799C182.554 309.51 181.977 310.087 181.266 310.087H178.921C178.209 310.087 177.633 309.51 177.633 308.799C177.633 308.088 178.209 307.512 178.921 307.512Z" fill="white"/>
<path d="M171.32 307.512H173.665C174.376 307.512 174.953 308.088 174.953 308.799C174.953 309.51 174.376 310.087 173.665 310.087H171.32C170.608 310.087 170.032 309.51 170.032 308.799C170.032 308.088 170.608 307.512 171.32 307.512Z" fill="white"/>
<path d="M186.217 307.297H200.795C201.507 307.297 202.083 307.873 202.083 308.585C202.083 309.296 201.507 309.872 200.795 309.872H186.217C185.506 309.872 184.93 309.296 184.93 308.585C184.93 307.873 185.506 307.297 186.217 307.297Z" fill="white"/>
<path d="M150.449 307.297H165.027C165.738 307.297 166.315 307.873 166.315 308.585C166.315 309.296 165.738 309.872 165.027 309.872H150.449C149.738 309.872 149.161 309.296 149.161 308.585C149.161 307.873 149.738 307.297 150.449 307.297Z" fill="white"/>
<path d="M198.593 313.324H200.939C201.65 313.324 202.226 313.9 202.226 314.611C202.226 315.322 201.65 315.899 200.939 315.899H198.593C197.882 315.899 197.305 315.322 197.305 314.611C197.305 313.9 197.882 313.324 198.593 313.324Z" fill="white"/>
<path d="M171.767 313.324H174.112C174.824 313.324 175.4 313.9 175.4 314.611C175.4 315.322 174.824 315.899 174.112 315.899H171.767C171.056 315.899 170.479 315.322 170.479 314.611C170.479 313.9 171.056 313.324 171.767 313.324Z" fill="white"/>
<path d="M164.166 313.324H166.512C167.223 313.324 167.799 313.9 167.799 314.611C167.799 315.322 167.223 315.899 166.512 315.899H164.166C163.455 315.899 162.878 315.322 162.878 314.611C162.878 313.9 163.455 313.324 164.166 313.324Z" fill="white"/>
<path d="M179.064 313.109H193.642C194.353 313.109 194.929 313.686 194.929 314.397C194.929 315.108 194.353 315.684 193.642 315.684H179.064C178.352 315.684 177.776 315.108 177.776 314.397C177.776 313.686 178.352 313.109 179.064 313.109Z" fill="white"/>
<path d="M193.228 336.435H195.573C196.284 336.435 196.861 337.012 196.861 337.723C196.861 338.434 196.284 339.01 195.573 339.01H193.228C192.517 339.01 191.94 338.434 191.94 337.723C191.94 337.012 192.517 336.435 193.228 336.435Z" fill="white"/>
<path d="M185.627 336.435H187.973C188.684 336.435 189.26 337.012 189.26 337.723C189.26 338.434 188.684 339.01 187.973 339.01H185.627C184.916 339.01 184.339 338.434 184.339 337.723C184.339 337.012 184.916 336.435 185.627 336.435Z" fill="white"/>
<path d="M164.756 336.65H179.334C180.046 336.65 180.622 337.226 180.622 337.937C180.622 338.648 180.046 339.225 179.334 339.225H164.756C164.045 339.225 163.469 338.648 163.469 337.937C163.469 337.226 164.045 336.65 164.756 336.65Z" fill="white"/>
<path d="M220.054 336.435H222.4C223.111 336.435 223.687 337.012 223.687 337.723C223.687 338.434 223.111 339.01 222.4 339.01H220.054C219.343 339.01 218.766 338.434 218.766 337.723C218.766 337.012 219.343 336.435 220.054 336.435Z" fill="white"/>
<path d="M200.525 336.65H215.103C215.814 336.65 216.39 337.226 216.39 337.937C216.39 338.648 215.814 339.225 215.103 339.225H200.525C199.813 339.225 199.237 338.648 199.237 337.937C199.237 337.226 199.813 336.65 200.525 336.65Z" fill="white"/>
<path d="M212.9 330.623H215.246C215.957 330.623 216.534 331.2 216.534 331.911C216.534 332.622 215.957 333.198 215.246 333.198H212.9C212.189 333.198 211.613 332.622 211.613 331.911C211.613 331.2 212.189 330.623 212.9 330.623Z" fill="white"/>
<path d="M186.074 330.623H188.42C189.131 330.623 189.707 331.2 189.707 331.911C189.707 332.622 189.131 333.198 188.42 333.198H186.074C185.363 333.198 184.786 332.622 184.786 331.911C184.786 331.2 185.363 330.623 186.074 330.623Z" fill="white"/>
<path d="M178.473 330.623H180.819C181.53 330.623 182.107 331.2 182.107 331.911C182.107 332.622 181.53 333.198 180.819 333.198H178.473C177.762 333.198 177.186 332.622 177.186 331.911C177.186 331.2 177.762 330.623 178.473 330.623Z" fill="white"/>
<path d="M193.371 330.838H207.949C208.66 330.838 209.237 331.414 209.237 332.125C209.237 332.836 208.66 333.413 207.949 333.413H193.371C192.66 333.413 192.083 332.836 192.083 332.125C192.083 331.414 192.66 330.838 193.371 330.838Z" fill="white"/>
<path d="M205.747 324.811H208.092C208.803 324.811 209.38 325.387 209.38 326.099C209.38 326.81 208.803 327.386 208.092 327.386H205.747C205.036 327.386 204.459 326.81 204.459 326.099C204.459 325.387 205.036 324.811 205.747 324.811Z" fill="white"/>
<path d="M178.921 324.811H181.266C181.977 324.811 182.554 325.387 182.554 326.099C182.554 326.81 181.977 327.386 181.266 327.386H178.921C178.209 327.386 177.633 326.81 177.633 326.099C177.633 325.387 178.209 324.811 178.921 324.811Z" fill="white"/>
<path d="M171.32 324.811H173.665C174.376 324.811 174.953 325.387 174.953 326.099C174.953 326.81 174.376 327.386 173.665 327.386H171.32C170.608 327.386 170.032 326.81 170.032 326.099C170.032 325.387 170.608 324.811 171.32 324.811Z" fill="white"/>
<path d="M186.217 325.026H200.795C201.507 325.026 202.083 325.602 202.083 326.313C202.083 327.024 201.507 327.601 200.795 327.601H186.217C185.506 327.601 184.93 327.024 184.93 326.313C184.93 325.602 185.506 325.026 186.217 325.026Z" fill="white"/>
<path d="M198.593 318.999H200.939C201.65 318.999 202.226 319.575 202.226 320.286C202.226 320.998 201.65 321.574 200.939 321.574H198.593C197.882 321.574 197.305 320.998 197.305 320.286C197.305 319.575 197.882 318.999 198.593 318.999Z" fill="white"/>
<path d="M171.767 318.999H174.112C174.824 318.999 175.4 319.575 175.4 320.286C175.4 320.998 174.824 321.574 174.112 321.574H171.767C171.056 321.574 170.479 320.998 170.479 320.286C170.479 319.575 171.056 318.999 171.767 318.999Z" fill="white"/>
<path d="M164.166 318.999H166.512C167.223 318.999 167.799 319.575 167.799 320.286C167.799 320.998 167.223 321.574 166.512 321.574H164.166C163.455 321.574 162.878 320.998 162.878 320.286C162.878 319.575 163.455 318.999 164.166 318.999Z" fill="white"/>
<path d="M179.064 319.214H193.642C194.353 319.214 194.929 319.79 194.929 320.501C194.929 321.212 194.353 321.789 193.642 321.789H179.064C178.352 321.789 177.776 321.212 177.776 320.501C177.776 319.79 178.352 319.214 179.064 319.214Z" fill="white"/>
<path d="M232.524 404.551L243.536 387.146L208.973 359.595L194.707 343.791C192.854 341.738 190.494 340.207 187.864 339.352C185.233 338.496 182.424 338.346 179.718 338.916C177.011 339.486 174.501 340.756 172.439 342.6C170.377 344.444 168.835 346.797 167.968 349.423C166.682 353.315 166.958 357.554 168.739 361.246C170.52 364.938 173.665 367.794 177.511 369.211L200.07 377.521L232.524 404.551Z" fill="#FFB6B6"/>
<path d="M490.887 278.355V362.947H431.622V278.355C431.621 277.747 431.815 277.154 432.176 276.664C432.537 276.174 433.045 275.813 433.626 275.633C433.9 275.543 434.187 275.498 434.476 275.501H488.024C488.4 275.501 488.772 275.574 489.119 275.717C489.466 275.86 489.781 276.07 490.047 276.335C490.313 276.6 490.524 276.915 490.668 277.262C490.812 277.608 490.886 277.98 490.887 278.355ZM467.758 307.421C467.743 305.754 467.069 304.16 465.885 302.986C464.7 301.812 463.099 301.153 461.432 301.153C459.764 301.153 458.163 301.812 456.979 302.986C455.794 304.16 455.121 305.754 455.105 307.421V317.236C455.114 318.909 455.784 320.51 456.969 321.689C458.155 322.868 459.759 323.53 461.432 323.53C463.104 323.53 464.708 322.868 465.894 321.689C467.079 320.51 467.75 318.909 467.758 317.236V307.421Z" fill="#2F2E41"/>
<path d="M491.068 360.242V368.399C491.067 368.822 490.899 369.227 490.601 369.526C490.303 369.826 489.899 369.996 489.476 369.999H433.032C432.609 369.997 432.204 369.828 431.906 369.528C431.608 369.228 431.44 368.822 431.44 368.399V360.242H491.068Z" fill="#3F3D56"/>
<path d="M584.118 150.907V305.359C584.117 307.328 583.334 309.215 581.942 310.607C580.55 311.998 578.663 312.781 576.695 312.782H347.802C345.833 312.781 343.946 311.998 342.554 310.607C341.162 309.215 340.38 307.328 340.378 305.359V150.907C340.383 148.94 341.167 147.056 342.558 145.666C343.95 144.276 345.835 143.494 347.802 143.492H576.695C578.661 143.494 580.547 144.276 581.938 145.666C583.33 147.056 584.113 148.94 584.118 150.907Z" fill="#3F3D56"/>
<path d="M578.748 152.828V303.454C578.747 304.506 578.328 305.514 577.584 306.257C576.841 307.001 575.833 307.419 574.781 307.421H349.707C348.655 307.42 347.647 307.001 346.904 306.257C346.16 305.514 345.741 304.506 345.74 303.454V152.828C345.74 151.776 346.157 150.766 346.901 150.02C347.645 149.275 348.654 148.855 349.707 148.853H574.781C575.834 148.855 576.843 149.275 577.587 150.02C578.331 150.766 578.748 151.776 578.748 152.828Z" fill="white"/>
<path d="M536.979 369.446C536.75 369.734 536.458 369.965 536.127 370.124C535.795 370.282 535.432 370.364 535.065 370.362H401.161C400.794 370.362 400.433 370.279 400.102 370.122C399.772 369.964 399.481 369.735 399.25 369.45C399.019 369.166 398.855 368.834 398.769 368.478C398.683 368.122 398.677 367.751 398.752 367.393L400.831 357.52C400.917 357.117 401.102 356.743 401.37 356.43C401.638 356.117 401.98 355.877 402.365 355.73C402.643 355.621 402.94 355.565 403.239 355.565H532.995C533.294 355.565 533.59 355.621 533.869 355.73C534.254 355.877 534.596 356.117 534.864 356.43C535.132 356.742 535.317 357.117 535.403 357.52L537.482 367.393C537.556 367.751 537.549 368.121 537.462 368.476C537.375 368.832 537.21 369.163 536.979 369.446Z" fill="#2F2E41"/>
<path d="M357.011 169.602H567.612C567.831 169.597 568.039 169.507 568.192 169.351C568.346 169.194 568.431 168.984 568.431 168.765C568.431 168.546 568.346 168.336 568.192 168.179C568.039 168.023 567.831 167.932 567.612 167.927H357.011C356.793 167.932 356.584 168.023 356.431 168.179C356.278 168.336 356.192 168.546 356.192 168.765C356.192 168.984 356.278 169.194 356.431 169.351C356.584 169.507 356.793 169.597 357.011 169.602Z" fill="#3F3D56"/>
<path d="M553.276 163.651C550.566 163.651 548.368 161.405 548.368 158.634C548.368 155.863 550.566 153.617 553.276 153.617C555.987 153.617 558.184 155.863 558.184 158.634C558.184 161.405 555.987 163.651 553.276 163.651Z" fill="#3F3D56"/>
<path d="M536.321 163.651C533.61 163.651 531.413 161.405 531.413 158.634C531.413 155.863 533.61 153.617 536.321 153.617C539.032 153.617 541.229 155.863 541.229 158.634C541.229 161.405 539.032 163.651 536.321 163.651Z" fill="#3F3D56"/>
<path d="M519.366 163.651C516.655 163.651 514.457 161.405 514.457 158.634C514.457 155.863 516.655 153.617 519.366 153.617C522.076 153.617 524.274 155.863 524.274 158.634C524.274 161.405 522.076 163.651 519.366 163.651Z" fill="#3F3D56"/>
<path d="M367.221 154.858H379.264C379.502 154.863 379.729 154.962 379.895 155.132C380.061 155.302 380.155 155.531 380.155 155.769C380.155 156.007 380.061 156.236 379.895 156.406C379.729 156.576 379.502 156.675 379.264 156.68H367.221C366.982 156.677 366.753 156.579 366.585 156.409C366.417 156.238 366.323 156.008 366.323 155.769C366.323 155.529 366.417 155.3 366.585 155.129C366.753 154.958 366.982 154.861 367.221 154.858Z" fill="#3F3D56"/>
<path d="M367.221 158.28H379.264C379.502 158.286 379.729 158.384 379.896 158.554C380.062 158.725 380.156 158.954 380.156 159.192C380.156 159.43 380.062 159.659 379.896 159.829C379.729 160 379.502 160.098 379.264 160.103H367.221C366.982 160.1 366.753 160.003 366.584 159.832C366.415 159.662 366.321 159.432 366.321 159.192C366.321 158.952 366.415 158.722 366.584 158.551C366.753 158.381 366.982 158.283 367.221 158.28Z" fill="#3F3D56"/>
<path d="M367.221 161.703H379.264C379.502 161.709 379.729 161.807 379.895 161.978C380.061 162.148 380.155 162.377 380.155 162.615C380.155 162.853 380.061 163.081 379.895 163.252C379.729 163.422 379.502 163.521 379.264 163.526H367.221C366.982 163.523 366.753 163.425 366.585 163.255C366.417 163.084 366.323 162.854 366.323 162.615C366.323 162.375 366.417 162.145 366.585 161.975C366.753 161.804 366.982 161.707 367.221 161.703Z" fill="#3F3D56"/>
<path d="M76.895 363.822C76.5316 364.88 75.8423 365.795 74.926 366.437C74.0097 367.079 72.9135 367.414 71.795 367.394L49.9435 366.832C48.8167 366.81 47.7273 366.424 46.8381 365.731C45.9489 365.039 45.3076 364.077 45.0102 362.991L41.918 329.926C40.8209 330.423 39.6265 330.669 38.4223 330.645C37.3762 330.618 36.3454 330.386 35.3889 329.962C34.4324 329.537 33.5689 328.928 32.8477 328.17C32.1265 327.412 31.5618 326.519 31.1857 325.542C30.8096 324.566 30.6295 323.525 30.6558 322.479C30.6821 321.432 30.9141 320.402 31.3388 319.445C31.7634 318.489 32.3722 317.625 33.1306 316.904C33.8889 316.183 34.7818 315.618 35.7584 315.242C36.735 314.866 37.7761 314.686 38.8223 314.712C39.3036 314.711 39.7837 314.761 40.2544 314.861C40.7663 314.307 41.3884 313.867 42.0809 313.568C42.7733 313.27 43.5206 313.119 44.2747 313.127L77.8873 313.995C78.1661 314.005 78.4435 314.039 78.7164 314.098C79.4535 314.235 80.1527 314.529 80.7668 314.959C81.3809 315.389 81.8957 315.946 82.2765 316.592C82.6574 317.238 82.8955 317.958 82.9747 318.703C83.054 319.449 82.9726 320.203 82.7361 320.914L76.895 363.822ZM41.2839 327.681L39.0835 319.802C38.8332 318.892 38.8274 317.932 39.0667 317.019C38.9599 317.019 38.8657 316.968 38.7589 316.968C37.2502 316.937 35.7907 317.505 34.7004 318.548C33.6101 319.591 32.978 321.024 32.9426 322.533C32.9073 324.042 33.4717 325.503 34.512 326.596C35.5522 327.689 36.9835 328.325 38.4921 328.364C39.4674 328.395 40.4327 328.159 41.2839 327.681Z" fill="#2F2E41"/>
<path d="M78.7164 314.097C78.0003 318.192 69.9491 321.07 60.2682 320.57C51.366 320.16 44.087 317.034 42.7534 313.329C43.2469 313.183 43.7602 313.115 44.2747 313.127L77.8873 313.995C78.1661 314.005 78.4436 314.039 78.7164 314.097Z" fill="#3F3D56"/>
<path d="M58.4939 345.653C58.4497 345.642 58.4076 345.623 58.3695 345.598L53.6241 342.492C53.5667 342.455 53.5195 342.404 53.4869 342.343C53.4543 342.283 53.4372 342.216 53.4371 342.147C53.4371 342.079 53.4542 342.011 53.4868 341.951C53.5194 341.891 53.5665 341.84 53.6238 341.802L58.5561 338.572C58.6014 338.542 58.6521 338.521 58.7054 338.511C58.7587 338.501 58.8135 338.501 58.8667 338.512C58.9199 338.523 58.9704 338.544 59.0153 338.575C59.0602 338.605 59.0986 338.644 59.1283 338.69C59.1581 338.735 59.1786 338.786 59.1886 338.839C59.1987 338.893 59.1982 338.947 59.187 339C59.1758 339.054 59.1542 339.104 59.1236 339.149C59.0929 339.193 59.0536 339.232 59.0081 339.261L54.6027 342.147L58.8209 344.908C58.9026 344.961 58.9627 345.042 58.9905 345.136C59.0183 345.229 59.012 345.329 58.9728 345.419C58.9336 345.508 58.864 345.581 58.7763 345.624C58.6886 345.666 58.5885 345.677 58.4939 345.653Z" fill="#008CCF"/>
<path d="M65.9891 345.998C65.9095 345.978 65.8377 345.935 65.7829 345.874C65.7281 345.812 65.6929 345.736 65.6817 345.655C65.6705 345.573 65.6839 345.49 65.7202 345.417C65.7564 345.343 65.8138 345.282 65.8851 345.241L70.2593 342.733L66.0314 339.593C65.988 339.561 65.9514 339.52 65.9236 339.474C65.8958 339.427 65.8774 339.376 65.8695 339.322C65.8616 339.269 65.8644 339.214 65.8776 339.162C65.8908 339.109 65.9142 339.06 65.9465 339.016C65.9787 338.973 66.0193 338.936 66.0657 338.909C66.1122 338.881 66.1636 338.862 66.2172 338.854C66.2707 338.847 66.3253 338.849 66.3778 338.863C66.4303 338.876 66.4796 338.899 66.5231 338.931L71.2565 342.447C71.3115 342.488 71.3555 342.542 71.3844 342.604C71.4134 342.666 71.4265 342.734 71.4225 342.803C71.4185 342.871 71.3974 342.937 71.3614 342.995C71.3253 343.053 71.2754 343.102 71.2159 343.136L66.2956 345.956C66.2027 346.01 66.0929 346.025 65.9891 345.998Z" fill="#008CCF"/>
<path d="M58.966 348.375C58.9261 348.365 58.888 348.349 58.853 348.327C58.8067 348.299 58.7664 348.262 58.7343 348.218C58.7023 348.174 58.6793 348.125 58.6664 348.072C58.6536 348.019 58.6512 347.965 58.6595 347.911C58.6678 347.858 58.6866 347.806 58.7148 347.76L65.4418 336.701C65.4988 336.608 65.5905 336.541 65.6968 336.515C65.803 336.489 65.9151 336.507 66.0085 336.564C66.1018 336.621 66.1688 336.712 66.1947 336.818C66.2206 336.925 66.2032 337.037 66.1465 337.13L59.4196 348.189C59.3737 348.265 59.3049 348.323 59.2232 348.357C59.1416 348.39 59.0514 348.396 58.966 348.375Z" fill="#008CCF"/>
<path d="M437.149 215.131H473.599C475.086 215.131 476.291 216.336 476.291 217.823V221.384C476.291 222.871 475.086 224.077 473.599 224.077H437.149C435.662 224.077 434.456 222.871 434.456 221.384V217.823C434.456 216.336 435.662 215.131 437.149 215.131Z" fill="#008CCF"/>
<path d="M415.902 233.022H494.846C496.333 233.022 497.538 234.228 497.538 235.714V239.275C497.538 240.762 496.333 241.968 494.846 241.968H415.902C414.415 241.968 413.21 240.762 413.21 239.275V235.714C413.21 234.228 414.415 233.022 415.902 233.022Z" fill="#E6E6E6"/>
<path d="M415.902 250.913H494.846C496.333 250.913 497.538 252.119 497.538 253.606V257.167C497.538 258.653 496.333 259.859 494.846 259.859H415.902C414.415 259.859 413.21 258.653 413.21 257.167V253.606C413.21 252.119 414.415 250.913 415.902 250.913Z" fill="#E6E6E6"/>
<path d="M409.21 310.824L409.031 311.388L409.022 311.407L403.64 327.769L397.448 346.625L385.799 382.06L385.686 387.564V387.583L384.821 431.862L387.22 437.865L384.519 447.707C384.519 447.707 385.762 432.83 392.423 441.373C396.197 446.229 400.61 451.197 404.232 455.854C398.954 457.99 393.59 459.922 388.142 461.65C386.966 462.026 385.78 462.384 384.595 462.741C384.341 462.817 384.087 462.892 383.833 462.967C365.773 468.308 347.103 471.309 328.279 471.897C327.3 471.925 326.341 471.944 325.409 471.962C325.08 471.972 324.76 471.981 324.44 471.981C323.386 471.991 322.342 472 321.288 472C319.161 472 317.044 471.969 314.936 471.906C299.336 471.466 283.827 469.369 268.67 465.649C268.773 459.392 269.056 452.081 269.46 444.271C269.648 440.442 273.873 436.293 274.127 432.284C274.306 429.273 270.514 426.441 270.712 423.383C271.991 404.556 273.591 411.783 274.777 398.45C274.899 397.143 275.012 395.891 275.115 394.696C275.877 386.134 276.404 380.78 276.404 380.78L271.342 348.874L263.391 298.78L264.003 297.773L264.69 297.435L306.628 276.678L308.905 270.844C309.568 269.164 310.719 267.72 312.21 266.699C313.701 265.678 315.463 265.126 317.27 265.114L344.896 265.001C346.33 264.995 347.744 265.33 349.022 265.98C350.301 266.63 351.405 267.575 352.245 268.737L359.725 279.096L409.21 310.824Z" fill="#3F3D56"/>
<path d="M379.429 374.175L385.686 387.564L389.958 396.71L397.307 435.184L400.986 439.088L404.138 425.265L437.13 432.59C438.212 426.578 437.42 432.794 438.088 426.198C437.899 426.01 437.702 425.821 437.504 425.633C436.977 425.144 436.535 424.683 436.544 424.241C436.921 401.49 435.792 362.771 426.363 339.314C424.887 335.484 422.94 331.853 420.567 328.503C420.379 328.249 420.2 327.995 420.021 327.741C415.674 321.653 412.927 315.66 409.031 311.398V311.388C409.007 311.369 408.985 311.347 408.965 311.322C408.951 311.315 408.938 311.306 408.928 311.294L382.167 297.105L381.019 329.36L380.2 352.544L379.429 374.175Z" fill="#3F3D56"/>
<path d="M282.935 377.978L275.119 394.701L272.391 400.525L265.044 438.995L261.377 442.89L258.218 429.07L256.733 428.766L229.96 423.221L222.157 448.003C220.398 445.073 219.705 441.625 220.195 438.243C220.685 434.861 222.328 431.751 224.847 429.441C225.38 428.959 225.824 428.489 225.811 428.045C225.367 401.286 227.004 352.424 241.786 332.314C246.481 325.931 249.298 319.575 253.396 315.134C253.409 315.121 253.409 315.109 253.421 315.109L263.395 298.779L264.004 297.777L264.689 297.434L282.935 377.978Z" fill="#3F3D56"/>
<path d="M330.285 257.14C309.987 257.14 293.532 240.685 293.532 220.388C293.532 200.09 309.987 183.636 330.285 183.636C350.583 183.636 367.038 200.09 367.038 220.388C367.038 240.685 350.583 257.14 330.285 257.14Z" fill="#FFB6B6"/>
<path d="M280.608 194.717C280.893 194.413 281.237 194.169 281.618 194C281.999 193.831 282.41 193.741 282.827 193.735L282.275 192.201C282.094 191.718 282.046 191.196 282.134 190.687C282.222 190.179 282.443 189.703 282.775 189.309C283.108 188.914 283.539 188.615 284.025 188.443C284.511 188.27 285.034 188.229 285.541 188.325L287.554 188.712L287.364 187.368C287.291 186.867 287.35 186.356 287.535 185.885C287.719 185.414 288.023 184.999 288.417 184.681C288.811 184.363 289.28 184.153 289.78 184.072C290.279 183.991 290.791 184.041 291.265 184.217C291.697 184.387 292.161 184.458 292.623 184.425C293.086 184.392 293.535 184.256 293.938 184.027C294.343 183.805 294.694 183.498 294.967 183.126C295.241 182.754 295.43 182.327 295.522 181.875L296.223 178.493L296.297 178.312C299.712 172.62 306.277 168.48 314.311 166.962C321.463 165.601 328.796 166.294 335.864 166.946C338.669 167.21 341.836 167.507 344.476 169.123C346.719 170.509 348.616 173.28 348.229 176.076C355.199 173.94 362.672 178.204 366.375 183.582C370.763 189.982 371.481 198 371.596 204.268C371.91 219.098 368.85 231.231 362.523 240.337C362.061 240.997 361.946 242.374 361.03 242.836L361.22 242.531C360.197 243.042 359.158 243.867 359.546 244.749C360.659 247.29 353.26 252.907 348.047 254.763C338.537 258.152 325.892 257.864 317 256.643L316.687 254.54C313.478 254.103 311.218 253.27 310.583 251.966C309.461 251.01 308.504 250.152 307.671 249.36L307.663 249.352C307.647 249.335 307.614 249.311 307.597 249.294C303.58 245.442 302.648 243.248 302.227 239.908C301.823 236.633 302.541 233.309 303.275 230.315C287.817 232.707 309.362 213.852 294.961 210.207C294.795 210.156 294.627 210.114 294.457 210.083C294.037 209.984 293.616 209.885 293.212 209.77C291.264 209.241 289.398 208.444 287.669 207.402C283.644 204.953 282.316 201.703 280.237 198.041C279.937 197.519 279.812 196.916 279.878 196.318C279.945 195.72 280.201 195.159 280.608 194.717Z" fill="#2F2E41"/>
<path d="M200.294 380.595C200.302 382.038 200.318 384.059 200.384 386.558C200.393 386.904 200.401 387.259 200.409 387.622C200.516 392.216 200.624 396.068 200.797 400.349C200.805 400.645 200.813 400.934 200.83 401.231C201.061 407.203 201.424 414.156 202.051 425.167C203.214 445.507 205.243 427.963 207.28 435.097C207.379 435.452 207.486 435.873 207.585 436.368C207.894 438.163 208.414 439.916 209.136 441.589C210.217 442.232 211.33 442.851 212.427 443.469C215.553 445.21 218.729 446.884 221.929 448.476C223.727 449.367 225.534 450.241 227.348 451.082C227.637 451.214 227.918 451.346 228.198 451.47C237.491 455.768 247.068 459.422 256.861 462.407C258.775 462.984 260.68 463.545 262.61 464.065C264.623 464.625 266.636 465.153 268.673 465.648C283.829 469.369 299.338 471.467 314.938 471.908C317.041 471.974 319.161 471.999 321.289 471.999C322.345 471.999 323.384 471.991 324.44 471.983C324.762 471.983 325.084 471.974 325.405 471.966C326.337 471.941 327.302 471.925 328.276 471.9C347.1 471.313 365.77 468.311 383.829 462.968L384.596 462.745C385.784 462.382 386.963 462.027 388.143 461.648C393.587 459.924 398.951 457.994 404.235 455.858C408.269 454.233 412.255 452.49 416.195 450.629C416.231 450.619 416.265 450.602 416.294 450.579C417.119 450.2 417.952 449.804 418.777 449.4C418.884 449.342 419 449.284 419.115 449.226C422.192 447.725 425.236 446.153 428.246 444.509C430.779 438.694 434.342 437.58 436.552 432.466C437.196 430.947 437.661 429.358 437.938 427.732C437.938 427.716 437.946 427.699 437.946 427.674C437.715 430.743 438.928 422.231 437.955 427.641C437.963 427.542 437.971 427.435 437.979 427.311C438.004 427.014 438.037 426.652 438.087 426.198C440.916 398.575 440.734 366.985 441.963 340.954C442.046 339.272 442.131 337.661 442.219 336.121C442.244 335.61 442.277 335.107 442.31 334.612C442.252 334.463 442.186 334.307 442.112 334.158C442.096 334.115 442.077 334.074 442.054 334.034C442.03 333.983 442.002 333.934 441.972 333.886C441.955 333.861 441.93 333.828 441.914 333.803C441.902 333.775 441.888 333.748 441.873 333.721C441.798 333.605 441.716 333.482 441.625 333.366C441.584 333.317 441.551 333.276 441.51 333.234C441.481 333.192 441.448 333.153 441.411 333.119C441.385 333.079 441.355 333.043 441.32 333.012C441.287 332.979 441.254 332.937 441.213 332.896C441.195 332.87 441.173 332.848 441.147 332.83C441.082 332.755 441.01 332.686 440.932 332.624C440.638 332.353 440.324 332.105 439.992 331.882C439.877 331.807 439.753 331.733 439.637 331.651C438.806 331.153 437.931 330.734 437.023 330.397C436.709 330.282 436.396 330.174 436.058 330.059C435.934 330.026 435.818 329.985 435.695 329.943C435.513 329.886 435.332 329.828 435.142 329.787C434.202 329.506 433.187 329.267 432.09 329.044C431.958 329.02 431.818 328.995 431.678 328.962C431.48 328.921 431.273 328.888 431.067 328.855C430.787 328.805 430.498 328.756 430.209 328.706C427.76 328.319 424.98 328.03 421.912 327.84C421.623 327.824 421.334 327.807 421.045 327.791C420.707 327.774 420.369 327.758 420.023 327.741C419.734 327.725 419.437 327.716 419.14 327.708C418.851 327.692 418.554 327.683 418.249 327.675C417.416 327.65 416.558 327.626 415.684 327.609C413.193 327.56 410.57 327.576 407.815 327.634C406.537 327.667 405.233 327.7 403.897 327.758C403.806 327.758 403.724 327.766 403.641 327.766C402.478 327.807 401.307 327.857 400.103 327.923C399.261 327.964 398.412 328.005 397.562 328.055C396.762 328.104 395.954 328.154 395.137 328.211C394.502 328.244 393.867 328.294 393.224 328.335C392.679 328.376 392.135 328.418 391.59 328.451L390.848 328.5C390.444 328.533 390.04 328.558 389.627 328.599C388.72 328.673 387.813 328.747 386.889 328.822C385.973 328.904 385.041 328.987 384.109 329.069C383.177 329.152 382.237 329.242 381.297 329.333C381.198 329.341 381.107 329.35 381.016 329.358C380.158 329.449 379.3 329.531 378.434 329.622C378.236 329.638 378.03 329.655 377.832 329.679C377.006 329.762 376.165 329.86 375.331 329.948C375.076 329.976 374.821 330.002 374.565 330.03C373.912 330.102 373.268 330.163 372.611 330.24C371.745 330.339 370.862 330.43 370.005 330.545C369.336 330.62 368.668 330.694 368 330.776C366.953 330.9 365.889 331.032 364.825 331.172C364.42 331.222 364.016 331.271 363.612 331.329C360.577 331.708 357.508 332.129 354.39 332.566C349.664 333.234 344.863 333.96 340.03 334.744C335.188 335.527 330.319 336.355 325.422 337.226C324.185 337.449 322.947 337.672 321.702 337.903C321.141 338.01 320.58 338.117 320.019 338.224C319.062 338.398 318.106 338.579 317.149 338.76C316.192 338.942 315.235 339.123 314.278 339.313C313.14 339.536 311.994 339.758 310.855 339.981C303.358 341.466 295.901 343.049 288.626 344.707C287.43 344.979 286.234 345.26 285.046 345.532C282.671 346.085 280.317 346.646 277.985 347.215C277.342 347.363 276.707 347.52 276.072 347.677C274.488 348.073 272.904 348.468 271.345 348.873L271.073 348.947C269.927 349.227 268.805 349.516 267.683 349.813C265.035 350.506 262.432 351.207 259.872 351.916C258.173 352.386 256.493 352.862 254.832 353.343C252.349 354.061 249.916 354.786 247.549 355.52C246.963 355.702 246.378 355.883 245.8 356.057C244.068 356.593 242.361 357.137 240.703 357.681C239.383 358.11 238.096 358.548 236.826 358.985C235.556 359.422 234.31 359.859 233.089 360.296C232.306 360.577 231.531 360.873 230.755 361.154C229.642 361.566 228.545 361.979 227.472 362.391C227.142 362.515 226.821 362.647 226.499 362.771C226.293 362.861 226.095 362.935 225.897 363.018C225.509 363.175 225.113 363.323 224.734 363.48C224.346 363.628 223.967 363.785 223.587 363.95C223.216 364.098 222.837 364.255 222.474 364.412C222.103 364.56 221.74 364.717 221.377 364.882C221.072 365.006 220.775 365.138 220.486 365.27C219.9 365.525 219.315 365.781 218.745 366.045C218.465 366.177 218.185 366.301 217.904 366.433L217.261 366.73C217.17 366.779 217.079 366.82 216.989 366.862C216.782 366.961 216.568 367.068 216.362 367.167C215.883 367.389 215.413 367.629 214.951 367.851C214.333 368.165 213.73 368.478 213.153 368.783C212.567 369.097 211.998 369.41 211.454 369.715C211.363 369.765 211.281 369.814 211.19 369.864C211.066 369.93 210.943 370.004 210.819 370.07C210.398 370.309 209.994 370.557 209.59 370.796C208.798 371.282 208.047 371.761 207.346 372.239C207.19 372.346 207.041 372.454 206.884 372.553C206.365 372.924 205.87 373.287 205.408 373.658C205.408 373.666 205.408 373.666 205.4 373.666C205.243 373.782 205.094 373.905 204.946 374.021C204.822 374.136 204.69 374.235 204.567 374.351C204.138 374.722 203.742 375.076 203.379 375.439C203.257 375.551 203.141 375.67 203.032 375.794C202.984 375.834 202.94 375.878 202.9 375.926C202.735 376.091 202.587 376.256 202.447 376.421C202.425 376.444 202.406 376.469 202.389 376.495C202.191 376.726 202.009 376.957 201.836 377.188C201.754 377.304 201.663 377.419 201.589 377.534C201.49 377.675 201.391 377.823 201.308 377.963C201.234 378.079 201.168 378.203 201.102 378.318C200.927 378.615 200.778 378.927 200.657 379.25C200.564 379.469 200.49 379.695 200.434 379.926C200.372 380.145 200.325 380.369 200.294 380.595Z" fill="#2F2E41"/>
<path opacity="0.2" d="M200.294 380.594C200.302 382.038 200.318 384.059 200.384 386.558C200.393 386.904 200.409 387.259 200.418 387.622C200.5 391.127 200.624 395.457 200.797 400.348C200.805 400.645 200.813 400.934 200.83 401.231C201.061 407.203 201.424 414.156 202.051 425.167C203.214 445.506 205.243 427.963 207.28 435.097C212.939 431.617 219.141 427.971 225.773 424.227C226.969 423.55 228.176 422.871 229.394 422.189C242.658 414.791 257.472 407.038 272.937 399.359C273.548 399.054 274.166 398.748 274.777 398.451C310.204 380.941 348.872 363.909 380.199 352.543C386.246 350.349 392.019 348.369 397.447 346.629C408.879 342.975 418.761 340.418 426.366 339.313C434.284 338.158 439.753 338.571 441.963 340.954C442.046 339.272 442.131 337.661 442.219 336.121C442.252 335.61 442.285 335.107 442.318 334.612C442.267 334.476 442.201 334.346 442.137 334.216C442.128 334.197 442.121 334.177 442.112 334.158C442.096 334.115 442.077 334.074 442.054 334.034C442.03 333.983 442.002 333.934 441.972 333.886C441.945 333.827 441.912 333.772 441.873 333.721C441.798 333.605 441.716 333.482 441.625 333.366C441.559 333.28 441.487 333.197 441.411 333.119C441.385 333.079 441.355 333.043 441.32 333.011C441.287 332.979 441.254 332.937 441.213 332.896C441.195 332.87 441.173 332.848 441.147 332.83C441.082 332.755 441.01 332.686 440.932 332.624C440.638 332.353 440.324 332.105 439.992 331.882C439.877 331.807 439.753 331.733 439.637 331.651C438.806 331.153 437.931 330.734 437.023 330.397C436.709 330.281 436.396 330.174 436.058 330.059C435.934 330.026 435.818 329.985 435.695 329.943C435.513 329.886 435.332 329.828 435.142 329.787C434.202 329.506 433.187 329.267 432.09 329.044C431.76 328.978 431.414 328.912 431.067 328.855C430.787 328.805 430.498 328.756 430.209 328.706C427.76 328.318 424.98 328.03 421.912 327.84C421.623 327.824 421.334 327.807 421.046 327.791C420.707 327.774 420.369 327.758 420.023 327.741C419.734 327.725 419.437 327.716 419.14 327.708C418.851 327.692 418.554 327.683 418.249 327.675C417.416 327.65 416.558 327.626 415.684 327.609C413.193 327.568 410.57 327.584 407.815 327.642C406.537 327.667 405.233 327.708 403.897 327.766C403.815 327.766 403.724 327.774 403.641 327.774C402.478 327.807 401.299 327.865 400.103 327.923C399.261 327.964 398.412 328.005 397.562 328.054C396.762 328.104 395.954 328.153 395.137 328.211C394.502 328.244 393.867 328.294 393.224 328.335C392.679 328.376 392.135 328.417 391.591 328.45C390.939 328.5 390.287 328.549 389.627 328.599C388.72 328.673 387.813 328.747 386.889 328.822C385.973 328.904 385.041 328.986 384.109 329.069C383.177 329.151 382.237 329.242 381.297 329.333C381.198 329.341 381.107 329.349 381.016 329.358C380.158 329.448 379.3 329.531 378.434 329.622C373.634 330.108 368.693 330.677 363.612 331.329C360.577 331.717 357.503 332.132 354.39 332.574C349.664 333.242 344.863 333.968 340.03 334.744C335.188 335.527 330.319 336.355 325.422 337.226C324.185 337.449 322.947 337.672 321.702 337.903C320.184 338.183 318.666 338.469 317.149 338.76C316.192 338.942 315.235 339.123 314.278 339.313C313.14 339.536 311.994 339.758 310.855 339.981C303.357 341.466 295.901 343.049 288.626 344.707C287.43 344.979 286.234 345.26 285.046 345.532C282.671 346.085 280.317 346.646 277.985 347.215C277.342 347.371 276.707 347.528 276.072 347.685C274.48 348.081 272.904 348.477 271.345 348.872V348.881C271.255 348.897 271.164 348.922 271.073 348.947C269.935 349.235 268.805 349.524 267.683 349.821C265.035 350.514 262.432 351.212 259.872 351.916C258.173 352.394 256.49 352.865 254.832 353.343C252.349 354.069 249.916 354.795 247.549 355.52C246.963 355.702 246.378 355.883 245.8 356.057C244.068 356.601 242.369 357.143 240.703 357.681C239.383 358.11 238.096 358.547 236.826 358.985C235.556 359.422 234.31 359.859 233.089 360.296C232.298 360.576 231.522 360.865 230.755 361.146C229.633 361.558 228.545 361.97 227.472 362.391C227.142 362.515 226.821 362.647 226.499 362.77C225.897 363.001 225.311 363.241 224.734 363.48C224.346 363.628 223.967 363.785 223.587 363.95C223.216 364.098 222.837 364.255 222.474 364.412C222.103 364.56 221.74 364.717 221.377 364.882C221.072 365.006 220.775 365.138 220.486 365.27C219.9 365.525 219.315 365.781 218.745 366.045C218.465 366.177 218.185 366.301 217.904 366.433L217.261 366.73C217.17 366.779 217.079 366.82 216.989 366.861C216.287 367.191 215.611 367.521 214.951 367.851C214.333 368.165 213.73 368.478 213.153 368.783C212.468 369.146 211.817 369.501 211.19 369.864C211.066 369.93 210.942 370.004 210.819 370.07C210.398 370.309 209.994 370.557 209.59 370.796C208.798 371.282 208.047 371.761 207.346 372.239C206.653 372.718 206.01 373.188 205.408 373.658C205.408 373.666 205.408 373.666 205.4 373.666C205.111 373.897 204.83 374.128 204.566 374.351C204.138 374.722 203.742 375.076 203.379 375.439C203.257 375.551 203.141 375.67 203.032 375.794C202.984 375.834 202.94 375.878 202.9 375.926C202.727 376.116 202.554 376.305 202.389 376.495C202.191 376.726 202.009 376.957 201.836 377.188C201.754 377.303 201.663 377.419 201.589 377.534C201.49 377.675 201.391 377.823 201.308 377.963C201.234 378.079 201.168 378.202 201.102 378.318C200.927 378.615 200.778 378.927 200.657 379.25C200.566 379.47 200.492 379.696 200.434 379.926C200.371 380.145 200.325 380.369 200.294 380.594Z" fill="black"/>
</g>
<defs>
<clipPath id="clip0_18_786">
<rect width="649" height="472" fill="white" transform="matrix(-1 0 0 1 649 0)"/>
</clipPath>
</defs>
</svg>
